<svg width="475" height="150" viewBox="0 0 475 150" fill="none" xmlns="http://www.w3.org/2000/svg">
<path d="M262.915 51.1429V50.6392L264.98 50.1355C266.356 49.8333 267.045 48.9939 267.045 47.6172V18.9079H262.763C261.521 18.9079 260.631 19.2437 260.094 19.9152C259.557 20.5532 258.986 21.443 258.381 22.5847L256.568 26.1104H256.065L256.316 17.9005H285.378L285.58 26.1104H285.076L283.263 22.5847C282.692 21.443 282.138 20.5532 281.601 19.9152C281.063 19.2437 280.174 18.9079 278.931 18.9079H274.65V47.6172C274.65 48.9939 275.338 49.8333 276.715 50.1355L278.78 50.6392V51.1429H262.915ZM287.794 51.1429V50.6392L288.398 50.4377C289.607 50.0348 290.211 49.1953 290.211 47.9194V21.0233C290.211 20.3182 290.094 19.7977 289.859 19.4619C289.624 19.1261 289.17 18.8743 288.499 18.7064L287.743 18.5049V18.0013L296.608 15.8355L297.414 16.2888L297.212 23.3906V29.6864C298.387 28.7127 299.647 27.89 300.99 27.2185C302.366 26.5133 303.877 26.1607 305.523 26.1607C307.705 26.1607 309.435 26.7819 310.711 28.0243C312.02 29.2667 312.675 31.1807 312.675 33.7662V47.9697C312.675 48.6413 312.809 49.1785 313.078 49.5815C313.346 49.9844 313.817 50.2866 314.488 50.4881L314.891 50.6392V51.1429H303.105V50.6392L303.71 50.4881C304.918 50.0851 305.523 49.2289 305.523 47.9194V32.1041C305.523 30.7609 305.288 29.8375 304.818 29.3339C304.381 28.8302 303.592 28.5784 302.45 28.5784C301.712 28.5784 300.906 28.7295 300.033 29.0317C299.16 29.3003 298.27 29.7872 297.363 30.4923V48.0201C297.363 49.3296 297.968 50.1691 299.177 50.5384L299.579 50.6392V51.1429H287.794ZM329.501 26.1607C331.684 26.1607 333.548 26.6141 335.092 27.5207C336.637 28.3937 337.812 29.6025 338.618 31.1471C339.457 32.6581 339.877 34.3874 339.877 36.3349C339.877 36.7043 339.86 37.0904 339.827 37.4934C339.793 37.8627 339.726 38.1985 339.625 38.5007H324.616C324.649 42.1271 325.287 44.7462 326.53 46.358C327.806 47.9361 329.686 48.7252 332.171 48.7252C333.85 48.7252 335.21 48.4566 336.251 47.9194C337.292 47.3821 338.265 46.593 339.172 45.5521L339.676 46.0054C338.635 47.8522 337.241 49.2961 335.495 50.337C333.783 51.3779 331.718 51.8984 329.3 51.8984C326.916 51.8984 324.801 51.3947 322.954 50.3873C321.107 49.3464 319.663 47.869 318.622 45.955C317.581 44.0411 317.061 41.7578 317.061 39.1051C317.061 36.3517 317.665 34.018 318.874 32.1041C320.083 30.1565 321.627 28.6791 323.508 27.6718C325.422 26.6644 327.42 26.1607 329.501 26.1607ZM329.35 27.1681C328.377 27.1681 327.537 27.4703 326.832 28.0747C326.16 28.6455 325.623 29.6864 325.22 31.1975C324.851 32.6749 324.649 34.7735 324.616 37.4934H333.229C333.564 33.8333 333.43 31.1975 332.826 29.5857C332.221 27.974 331.063 27.1681 329.35 27.1681ZM256.165 94.1429V93.6392L257.072 93.337C257.743 93.1019 258.197 92.7829 258.432 92.38C258.667 91.9771 258.784 91.4398 258.784 90.7683C258.818 88.7536 258.835 86.7221 258.835 84.6738C258.835 82.6256 258.835 80.5773 258.835 78.529V76.5143C258.835 74.4997 258.835 72.485 258.835 70.4703C258.835 68.422 258.818 66.3906 258.784 64.3759C258.784 63.7043 258.684 63.1671 258.482 62.7641C258.314 62.3612 257.911 62.0422 257.273 61.8071L256.165 61.4042V60.9005H280.543L280.896 69.2615H280.392L277.521 63.9729C277.185 63.3349 276.799 62.8313 276.363 62.4619C275.926 62.0926 275.322 61.9079 274.549 61.9079H266.44C266.407 64.2919 266.39 66.7263 266.39 69.2111C266.39 71.6959 266.39 74.1639 266.39 76.6151H271.628C272.4 76.6151 272.971 76.4472 273.341 76.1114C273.71 75.7756 274.062 75.2887 274.398 74.6508L275.456 72.7368H275.96V81.5511H275.456L274.348 79.6371C274.012 79.0327 273.66 78.5458 273.29 78.1765C272.954 77.8071 272.4 77.6224 271.628 77.6224H266.39C266.39 79.9729 266.39 82.2226 266.39 84.3716C266.39 86.487 266.407 88.5689 266.44 90.6172C266.44 91.9267 267.078 92.7829 268.354 93.1859L269.865 93.6392V94.1429H256.165ZM293.352 94.8984C290.8 94.8984 288.584 94.3779 286.703 93.337C284.823 92.2625 283.362 90.7515 282.321 88.8039C281.314 86.8564 280.81 84.5731 280.81 81.954C280.81 79.3349 281.347 77.0684 282.422 75.1544C283.53 73.2405 285.024 71.763 286.905 70.7221C288.819 69.6812 290.968 69.1607 293.352 69.1607C295.736 69.1607 297.868 69.6812 299.748 70.7221C301.629 71.7295 303.106 73.1901 304.181 75.1041C305.289 77.018 305.843 79.3013 305.843 81.954C305.843 84.6067 305.322 86.9068 304.281 88.8543C303.274 90.7683 301.83 92.2625 299.95 93.337C298.103 94.3779 295.904 94.8984 293.352 94.8984ZM293.352 93.891C294.527 93.891 295.467 93.5552 296.172 92.8837C296.877 92.2121 297.381 91.0201 297.683 89.3076C298.019 87.5951 298.187 85.1775 298.187 82.0547C298.187 78.8984 298.019 76.464 297.683 74.7515C297.381 73.039 296.877 71.847 296.172 71.1754C295.467 70.5039 294.527 70.1681 293.352 70.1681C292.176 70.1681 291.219 70.5039 290.481 71.1754C289.776 71.847 289.255 73.039 288.919 74.7515C288.617 76.464 288.466 78.8984 288.466 82.0547C288.466 85.1775 288.617 87.5951 288.919 89.3076C289.255 91.0201 289.776 92.2121 290.481 92.8837C291.219 93.5552 292.176 93.891 293.352 93.891ZM308.055 94.1429V93.6392L308.81 93.4377C309.482 93.2362 309.935 92.934 310.17 92.5311C310.439 92.1282 310.573 91.6077 310.573 90.9697V75.2048C310.573 74.4661 310.439 73.9288 310.17 73.5931C309.935 73.2237 309.482 72.9719 308.81 72.8375L308.055 72.6361V72.1324L316.718 69.2111L317.222 69.7148L317.675 74.0464V74.4493C318.145 73.5091 318.75 72.6529 319.488 71.8806C320.261 71.0747 321.1 70.4199 322.007 69.9163C322.947 69.4126 323.87 69.1607 324.777 69.1607C326.053 69.1607 327.027 69.5133 327.698 70.2185C328.37 70.9236 328.705 71.8134 328.705 72.8879C328.705 74.0296 328.37 74.9194 327.698 75.5574C327.06 76.1618 326.288 76.464 325.381 76.464C323.971 76.464 322.729 75.7588 321.654 74.3486L321.553 74.2478C321.218 73.7777 320.831 73.5259 320.395 73.4923C319.958 73.4252 319.555 73.6266 319.186 74.0967C318.85 74.3989 318.565 74.7683 318.33 75.2048C318.128 75.6077 317.927 76.0778 317.725 76.6151V90.6675C317.725 92.0106 318.313 92.8501 319.488 93.1859L321.1 93.6392V94.1429H308.055ZM340.3 94.8984C338.151 94.8984 336.472 94.3611 335.263 93.2866C334.088 92.2121 333.5 90.4996 333.5 88.1492V70.9236H330.025V70.4199L331.234 70.2185C332.275 69.9834 333.164 69.6476 333.903 69.2111C334.675 68.7746 335.431 68.187 336.17 67.4483L340.3 62.8649H340.803L340.652 69.9163H346.293V70.9236H340.602V89.0558C340.602 90.231 340.854 91.1208 341.357 91.7252C341.895 92.3296 342.566 92.6318 343.372 92.6318C344.077 92.6318 344.698 92.4639 345.236 92.1282C345.773 91.7588 346.31 91.2719 346.847 90.6675L347.351 91.1712C346.68 92.3128 345.756 93.2195 344.581 93.891C343.406 94.5626 341.979 94.8984 340.3 94.8984ZM354.973 66.5417C353.831 66.5417 352.858 66.1891 352.052 65.4839C351.279 64.7452 350.893 63.8218 350.893 62.7138C350.893 61.5721 351.279 60.6487 352.052 59.9436C352.858 59.2384 353.831 58.8858 354.973 58.8858C356.115 58.8858 357.072 59.2384 357.844 59.9436C358.616 60.6487 359.002 61.5721 359.002 62.7138C359.002 63.8218 358.616 64.7452 357.844 65.4839C357.072 66.1891 356.115 66.5417 354.973 66.5417ZM349.03 94.1429V93.6392L349.735 93.4377C350.406 93.2362 350.86 92.934 351.095 92.5311C351.363 92.1282 351.498 91.5909 351.498 90.9194V75.1544C351.498 74.4493 351.363 73.9288 351.095 73.5931C350.86 73.2237 350.406 72.9719 349.735 72.8375L349.03 72.6864V72.1828L358.247 69.2111L358.751 69.7148L358.6 76.8669V90.9697C358.6 91.6413 358.717 92.1785 358.952 92.5815C359.221 92.9844 359.674 93.2866 360.312 93.4881L360.816 93.6392V94.1429H349.03ZM372.615 94.8984C370.466 94.8984 368.787 94.3611 367.579 93.2866C366.403 92.2121 365.816 90.4996 365.816 88.1492V70.9236H362.34V70.4199L363.549 70.2185C364.59 69.9834 365.48 69.6476 366.219 69.2111C366.991 68.7746 367.747 68.187 368.485 67.4483L372.615 62.8649H373.119L372.968 69.9163H378.609V70.9236H372.918V89.0558C372.918 90.231 373.169 91.1208 373.673 91.7252C374.21 92.3296 374.882 92.6318 375.688 92.6318C376.393 92.6318 377.014 92.4639 377.551 92.1282C378.089 91.7588 378.626 91.2719 379.163 90.6675L379.667 91.1712C378.995 92.3128 378.072 93.2195 376.897 93.891C375.721 94.5626 374.294 94.8984 372.615 94.8984ZM390.066 94.8984C388.756 94.8984 387.548 94.6465 386.44 94.1429C385.365 93.6392 384.509 92.8333 383.871 91.7252C383.266 90.5836 382.981 89.0893 383.015 87.2426L383.166 74.2982C383.166 73.5259 383.031 72.9719 382.763 72.6361C382.494 72.3003 382.074 72.0653 381.504 71.9309L380.899 71.7295V71.2258L389.915 69.4629L390.419 69.9666L390.167 77.1188V89.2572C390.167 90.3317 390.469 91.1208 391.073 91.6245C391.711 92.1282 392.5 92.38 393.441 92.38C394.381 92.38 395.22 92.2457 395.959 91.9771C396.698 91.7084 397.436 91.3055 398.175 90.7683L398.377 74.3486C398.377 73.5763 398.259 73.039 398.024 72.7368C397.789 72.401 397.352 72.166 396.714 72.0317L396.211 71.8806V71.3769L405.025 69.4629L405.529 69.9666L405.378 77.1188V90.7683C405.378 91.507 405.478 92.0778 405.68 92.4807C405.881 92.8837 406.318 93.2195 406.989 93.4881L407.493 93.6392V94.1429L398.679 94.6465L398.225 91.6749C397.117 92.5815 395.909 93.3538 394.599 93.9918C393.323 94.5962 391.812 94.8984 390.066 94.8984ZM420.008 94.8984C418.027 94.8984 416.247 94.4618 414.669 93.5888C413.091 92.6822 411.832 91.3055 410.892 89.4587C409.985 87.5783 409.532 85.1775 409.532 82.2562C409.532 79.3013 410.052 76.8669 411.093 74.953C412.134 73.0054 413.511 71.5616 415.223 70.6214C416.936 69.6476 418.799 69.1607 420.814 69.1607C421.989 69.1607 423.114 69.2783 424.189 69.5133C425.263 69.7484 426.22 70.1009 427.059 70.571V64.0233C427.059 63.3182 426.942 62.7977 426.707 62.4619C426.505 62.1261 426.052 61.8911 425.347 61.7568L424.39 61.5553V61.0516L433.557 58.8355L434.111 59.2888L433.909 66.3402V90.9697C433.909 91.6413 434.027 92.1953 434.262 92.6318C434.497 93.0348 434.934 93.3202 435.572 93.4881L436.025 93.6392V94.1429L427.412 94.6969L426.959 92.8837C426.052 93.4881 425.011 93.975 423.836 94.3443C422.694 94.7137 421.418 94.8984 420.008 94.8984ZM422.929 93.0348C424.34 93.0348 425.632 92.615 426.808 91.7756V71.7798C425.565 70.974 424.289 70.571 422.98 70.571C421.368 70.571 419.991 71.5112 418.85 73.3916C417.708 75.2384 417.137 78.1597 417.137 82.1555C417.137 86.1513 417.674 88.9718 418.749 90.6172C419.823 92.2289 421.217 93.0348 422.929 93.0348ZM450.894 69.1607C453.077 69.1607 454.94 69.6141 456.485 70.5207C458.03 71.3937 459.205 72.6025 460.011 74.1471C460.85 75.6581 461.27 77.3874 461.27 79.3349C461.27 79.7043 461.253 80.0904 461.219 80.4934C461.186 80.8627 461.119 81.1985 461.018 81.5007H446.009C446.042 85.1271 446.68 87.7462 447.923 89.358C449.198 90.9361 451.079 91.7252 453.564 91.7252C455.243 91.7252 456.602 91.4566 457.643 90.9194C458.684 90.3821 459.658 89.593 460.565 88.5521L461.068 89.0054C460.027 90.8522 458.634 92.2961 456.888 93.337C455.175 94.3779 453.11 94.8984 450.693 94.8984C448.309 94.8984 446.193 94.3947 444.346 93.3873C442.5 92.3464 441.056 90.869 440.015 88.955C438.974 87.0411 438.453 84.7578 438.453 82.1051C438.453 79.3517 439.058 77.018 440.267 75.1041C441.476 73.1565 443.02 71.6791 444.9 70.6718C446.814 69.6644 448.812 69.1607 450.894 69.1607ZM450.743 70.1681C449.769 70.1681 448.93 70.4703 448.225 71.0747C447.553 71.6455 447.016 72.6864 446.613 74.1975C446.244 75.6749 446.042 77.7735 446.009 80.4934H454.621C454.957 76.8333 454.823 74.1975 454.218 72.5857C453.614 70.974 452.456 70.1681 450.743 70.1681ZM256.165 137.143V136.639L257.173 136.287C257.844 136.085 258.281 135.783 258.482 135.38C258.717 134.977 258.835 134.44 258.835 133.768V107.376C258.835 106.704 258.717 106.167 258.482 105.764C258.247 105.361 257.794 105.042 257.122 104.807L256.165 104.404V103.901H268.405C273.408 103.901 277.017 104.824 279.233 106.671C281.483 108.484 282.608 110.885 282.608 113.873C282.608 115.787 282.138 117.55 281.198 119.162C280.291 120.74 278.78 121.999 276.665 122.939C274.549 123.88 271.695 124.35 268.102 124.35H266.39V133.617C266.39 134.927 267.045 135.783 268.354 136.186L269.865 136.639V137.143H256.165ZM266.39 123.342H268.304C269.949 123.342 271.292 123.074 272.333 122.536C273.374 121.999 274.146 121.059 274.65 119.716C275.154 118.373 275.406 116.509 275.406 114.125C275.406 111.707 275.12 109.827 274.549 108.484C274.012 107.141 273.206 106.217 272.132 105.714C271.057 105.177 269.714 104.908 268.102 104.908H266.39V123.342ZM284.347 137.143V136.639L285.102 136.438C285.774 136.236 286.227 135.934 286.462 135.531C286.731 135.128 286.865 134.608 286.865 133.97V118.205C286.865 117.466 286.731 116.929 286.462 116.593C286.227 116.224 285.774 115.972 285.102 115.838L284.347 115.636V115.132L293.01 112.211L293.514 112.715L293.967 117.046V117.449C294.437 116.509 295.042 115.653 295.78 114.881C296.553 114.075 297.392 113.42 298.299 112.916C299.239 112.413 300.162 112.161 301.069 112.161C302.345 112.161 303.319 112.513 303.99 113.218C304.662 113.924 304.997 114.813 304.997 115.888C304.997 117.03 304.662 117.919 303.99 118.557C303.352 119.162 302.58 119.464 301.673 119.464C300.263 119.464 299.021 118.759 297.946 117.349L297.845 117.248C297.51 116.778 297.123 116.526 296.687 116.492C296.25 116.425 295.847 116.627 295.478 117.097C295.142 117.399 294.857 117.768 294.622 118.205C294.42 118.608 294.219 119.078 294.017 119.615V133.668C294.017 135.011 294.605 135.85 295.78 136.186L297.392 136.639V137.143H284.347ZM318.535 137.898C315.983 137.898 313.767 137.378 311.887 136.337C310.006 135.262 308.546 133.751 307.505 131.804C306.497 129.856 305.994 127.573 305.994 124.954C305.994 122.335 306.531 120.068 307.606 118.154C308.714 116.24 310.208 114.763 312.088 113.722C314.002 112.681 316.151 112.161 318.535 112.161C320.919 112.161 323.051 112.681 324.932 113.722C326.812 114.729 328.29 116.19 329.364 118.104C330.472 120.018 331.026 122.301 331.026 124.954C331.026 127.607 330.506 129.907 329.465 131.854C328.458 133.768 327.014 135.262 325.133 136.337C323.287 137.378 321.087 137.898 318.535 137.898ZM318.535 136.891C319.71 136.891 320.651 136.555 321.356 135.884C322.061 135.212 322.565 134.02 322.867 132.308C323.203 130.595 323.37 128.178 323.37 125.055C323.37 121.898 323.203 119.464 322.867 117.751C322.565 116.039 322.061 114.847 321.356 114.175C320.651 113.504 319.71 113.168 318.535 113.168C317.36 113.168 316.403 113.504 315.664 114.175C314.959 114.847 314.439 116.039 314.103 117.751C313.801 119.464 313.65 121.898 313.65 125.055C313.65 128.178 313.801 130.595 314.103 132.308C314.439 134.02 314.959 135.212 315.664 135.884C316.403 136.555 317.36 136.891 318.535 136.891ZM339.685 109.542C338.544 109.542 337.587 109.189 336.815 108.484C336.042 107.745 335.656 106.822 335.656 105.714C335.656 104.572 336.042 103.649 336.815 102.944C337.587 102.238 338.544 101.886 339.685 101.886C340.827 101.886 341.784 102.238 342.556 102.944C343.362 103.649 343.765 104.572 343.765 105.714C343.765 106.822 343.362 107.745 342.556 108.484C341.784 109.189 340.827 109.542 339.685 109.542ZM332.231 149.231C330.317 149.231 328.94 148.895 328.101 148.224C327.262 147.586 326.842 146.746 326.842 145.705C326.842 144.765 327.178 144.01 327.849 143.439C328.521 142.868 329.31 142.583 330.216 142.583C331.123 142.583 331.946 142.801 332.684 143.237C333.423 143.707 333.994 144.429 334.397 145.403L334.901 146.511C335.136 146.881 335.404 146.998 335.706 146.864C336.042 146.763 336.21 146.243 336.21 145.302V118.205C336.21 117.433 336.025 116.878 335.656 116.543C335.32 116.173 334.817 115.921 334.145 115.787L333.39 115.686V115.183L342.808 112.211L343.413 112.715L343.262 119.867V133.869C343.262 136.052 343.161 137.882 342.959 139.359C342.791 140.836 342.472 142.079 342.002 143.086C341.566 144.127 340.928 145.084 340.088 145.957C338.913 147.132 337.637 147.972 336.261 148.475C334.884 148.979 333.541 149.231 332.231 149.231ZM360.046 112.161C362.229 112.161 364.093 112.614 365.637 113.521C367.182 114.394 368.357 115.603 369.163 117.147C370.002 118.658 370.422 120.387 370.422 122.335C370.422 122.704 370.405 123.09 370.372 123.493C370.338 123.863 370.271 124.198 370.17 124.501H355.161C355.194 128.127 355.832 130.746 357.075 132.358C358.351 133.936 360.231 134.725 362.716 134.725C364.395 134.725 365.755 134.457 366.796 133.919C367.837 133.382 368.81 132.593 369.717 131.552L370.221 132.005C369.18 133.852 367.786 135.296 366.04 136.337C364.328 137.378 362.263 137.898 359.845 137.898C357.461 137.898 355.345 137.395 353.499 136.387C351.652 135.346 350.208 133.869 349.167 131.955C348.126 130.041 347.606 127.758 347.606 125.105C347.606 122.352 348.21 120.018 349.419 118.104C350.628 116.157 352.172 114.679 354.053 113.672C355.967 112.664 357.965 112.161 360.046 112.161ZM359.895 113.168C358.922 113.168 358.082 113.47 357.377 114.075C356.705 114.646 356.168 115.686 355.765 117.197C355.396 118.675 355.194 120.774 355.161 123.493H363.774C364.109 119.833 363.975 117.197 363.371 115.586C362.766 113.974 361.608 113.168 359.895 113.168ZM385.423 137.898C383.14 137.898 381.058 137.411 379.178 136.438C377.331 135.43 375.853 133.987 374.745 132.106C373.671 130.192 373.134 127.859 373.134 125.105C373.134 122.385 373.721 120.068 374.896 118.154C376.105 116.207 377.7 114.729 379.681 113.722C381.696 112.681 383.895 112.161 386.279 112.161C388.227 112.161 389.872 112.48 391.215 113.118C392.559 113.756 393.583 114.595 394.288 115.636C394.993 116.643 395.346 117.701 395.346 118.809C395.346 119.749 395.06 120.488 394.489 121.025C393.918 121.529 393.18 121.781 392.273 121.781C391.299 121.781 390.51 121.428 389.906 120.723C389.301 120.018 388.949 119.095 388.848 117.953C388.815 117.214 388.831 116.593 388.899 116.089C388.966 115.552 388.966 115.015 388.899 114.478C388.764 113.907 388.546 113.537 388.244 113.37C387.975 113.168 387.589 113.067 387.085 113.067C385.037 113.067 383.442 113.957 382.3 115.737C381.192 117.516 380.638 120.354 380.638 124.249C380.638 127.64 381.259 130.243 382.502 132.056C383.778 133.835 385.725 134.725 388.344 134.725C389.923 134.725 391.199 134.44 392.172 133.869C393.146 133.298 394.086 132.442 394.993 131.3L395.497 131.703C394.657 133.684 393.364 135.212 391.618 136.287C389.872 137.361 387.807 137.898 385.423 137.898ZM407.095 137.898C404.946 137.898 403.267 137.361 402.058 136.287C400.883 135.212 400.296 133.5 400.296 131.149V113.924H396.82V113.42L398.029 113.218C399.07 112.983 399.96 112.648 400.699 112.211C401.471 111.775 402.226 111.187 402.965 110.448L407.095 105.865H407.599L407.448 112.916H413.089V113.924H407.397V132.056C407.397 133.231 407.649 134.121 408.153 134.725C408.69 135.33 409.362 135.632 410.168 135.632C410.873 135.632 411.494 135.464 412.031 135.128C412.568 134.759 413.106 134.272 413.643 133.668L414.147 134.171C413.475 135.313 412.552 136.219 411.376 136.891C410.201 137.563 408.774 137.898 407.095 137.898ZM422.272 137.898C421.063 137.898 420.039 137.479 419.2 136.639C418.36 135.8 417.941 134.792 417.941 133.617C417.941 132.442 418.36 131.418 419.2 130.545C420.039 129.672 421.063 129.235 422.272 129.235C423.481 129.235 424.505 129.672 425.345 130.545C426.184 131.418 426.604 132.442 426.604 133.617C426.604 134.792 426.184 135.8 425.345 136.639C424.505 137.479 423.481 137.898 422.272 137.898Z" fill="black"/>
<path d="M77.1529 125.019C76.4509 125.294 75.993 125.752 75.993 126.698V130.758C74.8331 131.155 71.6584 132.376 65.2782 132.376C59.9973 132.376 58.3489 131.186 58.2574 130.758L56.853 123.035C56.853 123.035 58.9898 124.989 66.6521 124.501C75.8709 123.92 85.4255 118.456 85.4255 124.287V127.706C78.2214 127.675 77.1529 125.355 77.1529 125.019ZM133.901 127.675V124.256C133.901 118.456 143.456 123.89 152.675 124.47C160.337 124.958 162.474 123.005 162.474 123.005L161.07 130.758C161.008 131.186 159.329 132.376 154.049 132.376C147.699 132.376 144.524 131.155 143.334 130.758V126.698C143.334 125.783 142.876 125.325 142.174 125.019C142.204 125.355 141.136 127.675 133.901 127.675ZM109.663 131.186C124.53 131.186 139.61 130.423 141.563 128.164C141.716 127.98 141.777 128.164 141.777 128.316V136.192C141.777 138.482 126.209 139.825 109.633 139.825C93.0571 139.825 77.4887 138.482 77.4887 136.192V128.316C77.4887 128.194 77.5499 128.011 77.7026 128.164C79.7476 130.392 94.8276 131.186 109.663 131.186Z" fill="black"/>
<path d="M156.647 39.8287C156.647 39.8827 157.08 40.3691 157.593 40.8824C158.998 42.2874 158.89 44.1788 157.485 42.8549C155.972 41.4498 153.108 41.0446 151.676 42.0443C151.135 42.4225 151.135 42.4225 151.838 42.4225C152.243 42.4225 152.865 42.5576 153.189 42.7198C153.729 42.9359 153.81 43.1521 153.729 43.9356L153.621 44.8543L151.946 44.8273C150.055 44.7732 148.812 45.2866 148.109 46.3674C147.623 47.0699 147.785 47.6103 148.325 47.0699C148.812 46.5835 150.622 46.6646 150.811 47.178C151.081 47.8534 151 48.0966 150.541 48.0966C150.325 48.0966 149.487 48.7181 148.677 49.4746C147.245 50.8256 146.434 52.2576 146.947 52.5548C147.083 52.6629 147.191 52.6089 147.191 52.4467C147.191 52.2846 147.515 51.9604 147.893 51.7172C148.542 51.2849 148.623 51.2849 149.568 51.7983C150.352 52.2306 150.892 52.3387 152.108 52.2306C153.594 52.0955 153.675 52.1225 153.945 52.798C154.081 53.2033 154.621 53.7707 155.161 54.0679C155.837 54.4732 156.188 54.9325 156.377 55.662C156.647 56.7158 157.971 58.0938 158.701 58.0938C158.917 58.0938 159.079 58.2559 159.079 58.445C159.079 58.9314 157.809 60.7687 156.566 62.0656L155.459 63.2005L156.512 63.6598C157.134 63.903 157.944 64.0381 158.458 63.957C159.592 63.7679 159.647 64.3353 158.674 65.7673C158.296 66.3077 157.998 66.8751 157.998 67.0102C157.998 67.1453 158.728 67.3344 159.62 67.4425C161.133 67.6046 161.241 67.6587 161.241 68.3341C161.241 68.7124 160.998 69.4419 160.7 69.9013L160.16 70.7929H161.403C162.835 70.7929 163.483 70.5227 164.78 69.2528L165.753 68.3341L166.077 69.8472C166.509 71.7926 166.185 72.36 163.889 73.4678C162.943 73.9272 162.24 74.3054 162.321 74.3054C162.403 74.3325 163.483 74.4946 164.753 74.6837L167.05 75.0079L164.753 75.7915C162.997 76.3589 161.916 76.548 160.16 76.5751L157.863 76.6021L157.782 75.4403C157.728 74.6297 157.863 74.0082 158.242 73.3868C159.025 72.1169 158.944 71.4144 157.836 69.7121C156.837 68.172 156.215 67.5776 155.594 67.5506C155.323 67.5506 155.323 67.6857 155.675 68.2261C156.242 69.0637 156.215 69.7121 155.648 70.1174C155.269 70.3876 155.188 70.8199 155.242 72.0898C155.269 72.9815 155.188 73.7921 155.053 73.8731C154.702 74.0893 154.513 72.7653 154.675 71.3333C154.837 69.8472 154.054 68.6314 152.919 68.6314C152.513 68.6314 151.946 68.4422 151.676 68.2261C151.379 68.0099 150.649 67.8208 150.055 67.8208H148.947L149.838 68.5233C150.649 69.1717 150.73 69.3339 150.568 70.2255C150.46 70.928 150.568 71.4414 150.973 72.0628C151.271 72.5492 151.622 72.9545 151.757 72.9545C152.054 72.9545 152.946 75.116 152.73 75.3322C152.459 75.6024 151.298 74.2784 151.135 73.4949C150.946 72.4951 150.082 71.6035 149.298 71.6035C148.947 71.6035 148.163 71.4144 147.542 71.1982C146.893 70.982 146.029 70.874 145.569 70.955C144.624 71.1712 144.218 71.6035 145.002 71.6035C145.84 71.6035 147.191 72.9004 147.191 73.738C147.191 74.7377 147.893 75.6564 148.704 75.6564C149.082 75.6564 149.811 75.8455 150.352 76.0617C151.081 76.3859 151.271 76.548 151.027 76.7912C150.811 77.0074 150.406 76.9804 149.487 76.6291C148.352 76.1698 148.217 76.1698 147.596 76.5751C147.218 76.8182 146.92 77.1965 146.92 77.4127C146.92 77.6288 146.731 77.818 146.515 77.818C145.975 77.818 143.948 79.6553 143.948 80.1416C143.948 80.628 144.083 80.628 144.921 80.0876C145.705 79.5472 147.569 79.7634 148.325 80.4388C148.704 80.7631 149.19 80.8441 150.568 80.7361C152.892 80.5469 153.999 80.8171 155.188 81.8709C155.945 82.5193 156.323 82.6814 156.864 82.5464C157.539 82.3842 157.539 82.3842 157.35 83.6812C157.269 84.3837 156.945 85.4104 156.647 85.9778C156.215 86.8424 156.188 87.0586 156.485 87.1667C157.053 87.3828 159.106 86.7614 160.241 86.0319L161.241 85.3834L161.511 86.0589C161.673 86.4642 161.781 86.9505 161.781 87.1667C161.781 87.8422 162.375 87.572 163.618 86.302C164.753 85.1672 164.888 85.1132 165.213 85.5455C165.537 86.0048 166.915 87.0046 167.185 87.0046C167.293 87.0046 167.509 86.5993 167.671 86.0859C168.266 84.4377 168.644 84.3837 170.076 85.6536C171.994 87.3558 172.211 87.4098 172.778 86.5452C173.129 86.0319 173.264 85.2753 173.264 83.9784C173.264 81.9519 173.67 81.6277 173.994 83.411C174.426 85.9238 175.723 87.4909 178.533 88.8959C180.208 89.7335 182.451 91.3006 182.235 91.4898C182.181 91.5438 181.694 91.4628 181.127 91.3006C180.56 91.1385 179.911 91.0845 179.695 91.1655C179.317 91.3277 179.317 91.4087 179.749 91.868C180.208 92.3814 180.208 92.3814 179.452 92.1653C179.019 92.0302 178.182 91.7059 177.587 91.4357C176.372 90.9224 173.372 90.7873 170.914 91.1655C169.428 91.3817 169.347 91.3547 168.59 90.6252C168.158 90.1928 167.752 89.6525 167.644 89.4363C167.509 89.085 167.455 89.085 167.212 89.4363C166.807 90.0037 166.861 91.0575 167.32 91.9491C167.698 92.6786 167.671 92.6786 166.699 93.1109C166.158 93.3271 165.321 93.8675 164.861 94.3268C164.402 94.7591 163.672 95.2185 163.24 95.3535L162.457 95.5697L163.321 96.002C163.808 96.2452 164.672 96.4613 165.294 96.4613H166.374L165.834 97.5151C165.537 98.1095 165.05 98.758 164.726 99.0012C163.808 99.6226 164.348 100.055 165.942 99.9198L167.32 99.8118L167.293 101.973C167.293 103.189 167.185 104.351 167.077 104.594C166.834 105.108 164.429 106.594 162.889 107.134C162.24 107.35 160.808 107.539 159.728 107.539C157.998 107.539 157.701 107.458 157.458 106.999C157.296 106.675 157.242 106.215 157.323 105.918C157.593 105.054 156.81 103.621 155.81 103.216C155.296 103.027 154.567 102.568 154.189 102.216C153.297 101.406 151.703 101.001 150.73 101.352L150.055 101.622L151.108 102.108C152.135 102.568 152.865 103.54 152.865 104.432C152.865 104.891 152.432 104.972 152.189 104.594C151.973 104.243 147.785 104.243 147.083 104.621C146.218 105.054 145.299 105.972 145.299 106.377C145.299 106.648 145.434 106.675 145.813 106.459C146.542 106.08 148.082 106.107 148.596 106.54C149.271 107.053 149.433 107.945 148.866 107.999C145.705 108.269 144.056 108.89 143.165 110.241C142.759 110.863 142.759 110.89 143.273 110.647C143.57 110.511 144.381 110.376 145.083 110.376C146.11 110.376 146.461 110.511 147.028 111.133C147.407 111.538 147.839 111.862 148.028 111.862C148.19 111.862 148.028 112.106 147.623 112.43C146.596 113.24 145.84 114.889 145.84 116.294C145.84 117.807 146.245 118.104 146.65 116.861C146.812 116.348 147.001 115.915 147.028 115.915C147.083 115.915 147.488 116.05 147.974 116.213C149.082 116.618 150.109 116.186 150.838 115.024C151.298 114.321 151.568 114.186 152.189 114.24C152.649 114.267 153.945 114.348 155.08 114.375C156.512 114.429 157.323 114.591 157.647 114.889C159.16 116.213 161.376 116.591 162.294 115.672C162.592 115.375 162.97 114.645 163.132 114.024C163.321 113.294 163.645 112.835 164.024 112.7C164.807 112.403 165.077 112.592 164.753 113.213C164.348 113.997 164.429 116.131 164.915 117.158C165.158 117.672 165.672 118.347 166.077 118.644L166.78 119.212L166.861 118.455C166.996 116.888 167.212 116.456 167.969 116.05C168.752 115.645 168.779 115.672 169.076 116.564C169.59 118.158 171.049 119.077 172.454 118.725C172.967 118.59 173.102 118.428 172.967 118.104C172.616 117.266 172.535 115.969 172.832 115.429C173.129 114.889 173.183 114.889 174.129 115.294C175.345 115.78 177.56 115.645 178.182 115.051C178.533 114.672 178.506 114.591 177.668 114.321C176.696 113.997 175.588 112.997 175.048 111.943C174.48 110.809 174.696 109.215 175.696 107.431C176.777 105.486 176.858 104.594 176.074 103.297C175.021 101.595 175.507 99.6226 177.155 98.785C178.668 97.9744 182.586 97.7042 182.586 98.4067C182.586 98.5418 182.883 98.9201 183.207 99.2714C183.802 99.8388 183.856 100.136 183.829 102.352C183.829 103.703 183.91 104.891 184.018 104.999C184.126 105.108 184.504 104.864 184.856 104.486C185.855 103.405 186.099 103.594 185.666 105.026C185.261 106.323 185.396 108.485 185.855 108.782C185.99 108.836 186.45 108.512 186.882 108.026C187.774 107.026 188.152 107.107 187.72 108.188C187.26 109.458 187.45 112.403 188.017 112.403C188.125 112.403 188.557 112.106 188.963 111.727C189.368 111.349 189.8 111.052 189.908 111.052C190.043 111.052 190.151 111.619 190.151 112.349C190.151 113.213 190.395 114.051 190.881 114.97C191.746 116.591 191.827 118.617 191.151 120.644C190.638 122.157 188.746 124.643 187.477 125.426L186.666 125.94L186.504 125.183C186.234 123.994 185.99 123.643 184.991 123.157C184.099 122.697 183.964 122.697 182.451 123.184C180.397 123.778 179.695 124.156 179.344 124.832C179.073 125.318 179.155 125.345 180.397 125.183C181.586 125.048 181.856 125.102 182.613 125.75L183.478 126.48L182.127 126.291C180.641 126.102 180.776 126.021 179.046 128.128C178.263 129.101 177.723 130.398 177.723 131.37C177.723 132.073 178.128 131.965 178.479 131.181C178.938 130.182 180.154 129.668 181.289 130.019C182.073 130.263 182.424 130.209 183.532 129.695C184.775 129.128 186.855 128.344 187.098 128.344C187.152 128.344 187.125 128.452 187.044 128.614C186.963 128.75 186.207 129.074 185.396 129.317C183.91 129.749 183.289 130.425 183.586 131.262C183.667 131.424 183.532 132.073 183.289 132.667C182.748 133.991 182.748 135.099 183.234 135.775C183.559 136.234 183.613 136.207 183.775 135.315C183.991 134.18 184.477 133.694 186.126 132.992C186.99 132.613 187.666 132.073 188.206 131.262C188.665 130.614 189.26 129.884 189.53 129.668C189.8 129.452 189.665 129.695 189.26 130.182C188.395 131.262 188.368 131.641 189.098 133.883C189.665 135.639 190.8 136.99 191.692 136.99C192.07 136.99 192.07 136.909 191.638 136.45C191.313 136.099 191.151 135.504 191.178 134.694C191.178 133.667 191.34 133.343 192.151 132.586C192.691 132.073 193.124 131.397 193.124 131.073C193.124 130.155 193.637 129.425 194.258 129.425C194.583 129.425 195.069 129.236 195.339 128.993C195.771 128.56 195.934 128.56 197.393 128.993C198.257 129.236 199.419 129.425 199.987 129.425H200.986L200.284 128.479C199.878 127.966 199.446 127.128 199.338 126.588L199.122 125.642H200.338C201.689 125.642 202.905 125.102 203.499 124.237C204.147 123.346 204.039 123.211 202.77 123.211C201.392 123.211 200.5 122.643 199.987 121.427C199.419 120.103 199.5 119.968 200.473 120.265C201.608 120.59 202.472 120.563 203.715 120.238C204.715 119.941 206.363 118.779 206.363 118.347C206.363 118.239 205.85 118.05 205.228 117.969C204.58 117.861 203.337 117.401 202.445 116.888C200.851 115.996 200.824 115.996 200.689 114.618C200.581 113.43 200.446 113.159 199.608 112.619C198.203 111.673 197.933 110.944 198.149 108.89C198.446 106.242 198.338 104.864 197.744 103.865C197.149 102.865 197.122 102.865 199.23 102.541C200.23 102.379 202.013 101.595 204.12 100.352C204.931 99.8928 205.066 99.8658 205.742 100.244C206.741 100.811 207.093 101.946 206.498 102.838C206.093 103.486 205.904 103.54 204.715 103.432C203.121 103.27 202.986 103.649 204.175 104.864C204.823 105.513 205.201 105.648 206.228 105.648C207.309 105.648 207.633 105.513 208.281 104.81C209.389 103.621 209.768 102.162 209.362 100.73C209.011 99.6226 207.957 98.2987 207.174 98.0285C206.903 97.9474 207.093 97.6232 207.876 96.9477C209.2 95.7318 210.173 93.8134 210.335 92.1653C210.524 90.0848 210.659 89.7876 211.47 89.4633C212.145 89.1661 212.415 89.2201 213.361 89.6795C214.739 90.382 215.82 90.409 217.171 89.7065C218.306 89.1391 219.63 87.2477 218.63 87.68C218.333 87.7881 217.522 87.9502 216.766 88.0043C215.604 88.1123 215.252 88.0313 214.334 87.3828C213.199 86.5993 211.389 86.3561 210.308 86.8424C209.876 87.0586 209.849 87.0316 210.092 86.5452C210.254 86.248 210.767 85.8427 211.2 85.6536C211.929 85.3564 212.172 85.4104 213.388 86.0319C215.739 87.2477 217.63 86.8154 218.684 84.789C219.197 83.7892 218.981 83.492 218.225 84.1945C217.306 85.0321 215.144 84.897 213.739 83.9243C212.524 83.1138 210.605 82.8706 208.957 83.3029C208.254 83.492 208.2 83.465 208.498 83.1138C209.011 82.5193 210.605 82.06 211.659 82.2221C212.172 82.3032 212.956 82.6814 213.415 83.0597C214.793 84.2216 217.441 83.7892 218.441 82.2221C218.954 81.4656 218.765 81.1684 218.035 81.5737C216.928 82.1681 215.09 81.7358 214.199 80.655C213.064 79.304 210.119 78.7636 208.498 79.6012C207.39 80.1686 207.201 79.8985 208.227 79.1959C209.686 78.1422 211.929 78.1152 213.01 79.1419C215.009 80.9792 217.711 80.5199 218.711 78.1422C219.197 76.9804 219.008 76.7912 218.09 77.5207C216.82 78.5205 215.712 78.2773 214.145 76.7372C212.713 75.3052 211.686 74.9269 209.984 75.1971C209.146 75.3322 209.038 75.3052 209.227 74.8999C209.335 74.6567 209.47 73.5759 209.524 72.5492C209.632 70.874 209.551 70.4687 208.876 69.1447L208.092 67.6316L209.173 66.4428C210.497 64.9567 211.416 62.9573 211.794 60.8228C212.226 58.4991 211.578 55.6891 210.119 53.5275C209.47 52.5548 209.065 51.6362 209.065 51.1228C209.065 49.988 210.038 48.9342 211.281 48.7181C213.469 48.3668 214.577 51.3389 212.848 52.9601C212.415 53.3654 212.037 53.7977 212.037 53.8788C212.037 53.9598 212.713 54.0409 213.523 54.0409C214.766 54.0409 215.117 53.9328 215.955 53.2033C217.171 52.1225 217.63 50.6364 217.225 49.2044C216.739 47.6103 215.036 45.854 213.118 45.0164C211.659 44.3679 211.173 44.2599 209.497 44.3679C207.39 44.476 205.282 45.3406 203.823 46.6916C201.986 48.4208 201.229 51.8793 202.202 54.176C202.418 54.7164 202.553 55.2297 202.499 55.3108C202.256 55.527 200.176 54.0679 199.419 53.1222C199.014 52.5818 198.392 51.393 198.068 50.4743L197.501 48.7721L196.906 50.0961C196.393 51.2038 196.312 51.7713 196.42 53.6086C196.609 56.986 197.879 58.9584 201.04 60.7417C201.851 61.201 202.607 61.6874 202.688 61.8225C202.77 61.9576 202.175 62.0116 201.364 61.9305C200.5 61.8495 199.527 61.9576 199.068 62.1467C197.339 62.8762 195.853 65.4971 196.258 67.1183L196.42 67.8208L197.663 67.0913C199.365 66.0915 201.04 66.0915 202.742 67.1723C205.553 68.9016 206.39 72.6302 204.526 75.2241C201.824 79.0068 201.662 83.411 204.147 86.9775C206.255 90.0037 206.471 90.7873 205.661 92.6246L205.201 93.6243L204.985 92.5706C204.472 90.409 202.986 89.1661 200.878 89.1661C199.932 89.1661 199.554 89.3282 198.96 89.9497C198.041 90.9224 197.933 92.4084 198.744 93.4622C199.527 94.543 200.068 94.5159 199.932 93.4082C199.851 92.6786 199.959 92.3814 200.419 92.0572C202.148 90.8683 203.904 94.1917 202.715 96.4343C202.283 97.326 200.851 98.0825 199.662 98.0825C198.96 98.0825 198.717 97.8393 197.798 96.3803C197.204 95.4616 196.069 93.8945 195.258 92.9488C192.88 90.1118 192.178 89.1391 190.881 86.8695C189.314 84.1945 188.098 80.8441 187.855 78.7096L187.666 77.0884L189.152 77.2235C189.962 77.2776 190.827 77.2235 191.07 77.0884C191.475 76.8723 191.394 76.7372 190.476 76.1157C188.99 75.143 188.125 73.3327 188.368 71.6846C188.449 70.982 188.584 70.3876 188.611 70.3336C188.665 70.2795 189.098 70.4417 189.584 70.6848C190.773 71.2793 192.286 71.4414 193.232 71.0901L194.015 70.7659L193.421 70.1444C192.556 69.2258 192.313 67.9018 192.745 66.4698C193.232 64.8486 193.205 62.9032 192.718 61.6874C192.151 60.3364 192.205 60.3094 193.286 61.3631C194.312 62.3358 195.096 63.6598 195.393 64.9837C195.771 66.5238 196.177 64.9567 196.042 62.4169C195.961 60.4175 195.799 59.769 195.042 58.2289C194.529 57.2292 193.583 55.8242 192.88 55.1217L191.638 53.8247L192.394 53.1492C192.961 52.6359 193.124 52.2306 193.124 51.366V50.2582H191.989H190.854L191.692 49.3665C192.961 48.0426 193.394 46.9618 193.394 45.1785C193.394 43.5844 193.394 43.5844 192.502 43.4223C192.016 43.3412 191.07 43.3952 190.422 43.5033C189.746 43.6384 189.179 43.6925 189.152 43.6925C189.125 43.6654 189.26 43.125 189.422 42.5036C189.584 41.8822 189.638 41.2877 189.557 41.2067C189.449 41.0986 188.963 41.5039 188.422 42.0713L187.477 43.098L187.45 41.3958C187.45 40.4771 187.341 39.7206 187.179 39.7206C187.044 39.7206 186.909 39.9097 186.909 40.1529C186.909 40.3691 186.531 40.9365 186.099 41.3958C185.288 42.2064 185.234 42.2064 183.316 42.0443C181.1 41.8281 178.911 42.2874 177.101 43.3412C175.912 44.0167 174.237 44.3679 171.778 44.449C170.941 44.476 169.995 44.6381 169.671 44.8273C169.076 45.1515 169.049 45.3136 169.103 47.7724C169.13 49.2044 169.049 50.7175 168.968 51.0958C168.725 51.9334 169.401 53.7707 169.941 53.7707C170.157 53.7707 170.319 53.3924 170.346 52.798C170.4 51.6362 170.806 51.0687 171.481 51.2579C172.238 51.447 174.372 50.4203 174.885 49.6097C175.291 49.0153 175.426 48.9612 175.777 49.2314C176.642 49.961 177.182 52.0955 176.696 52.9061C176.372 53.3924 173.859 53.0141 174.048 52.5278C174.291 51.9064 173.48 52.0955 172.94 52.771C172.346 53.5275 170.238 54.5813 169.319 54.5813C168.374 54.5813 167.996 54.0949 167.996 52.9061C167.996 51.1768 166.32 49.988 165.023 50.7986C164.699 51.0147 164.726 51.1228 165.186 51.6632C165.51 52.0144 165.834 52.825 165.915 53.5005C166.131 55.1757 167.023 55.9322 168.833 55.9322C170.103 55.9322 170.157 55.9593 169.887 56.4726C169.401 57.3913 169.644 58.4721 170.373 58.5801C170.914 58.6612 170.995 58.8233 170.914 59.4988C170.806 60.5526 171.211 60.7147 172.13 59.9852C172.67 59.5528 172.859 59.1746 172.859 58.4721C172.859 57.4723 173.075 57.3913 174.723 57.7155C175.426 57.8506 175.561 58.0127 175.561 58.6612C175.561 59.5258 175.156 59.823 173.535 60.1202C172.967 60.2013 172.13 60.4715 171.697 60.7147C170.941 61.0929 170.887 61.0659 169.671 60.0662C168.968 59.4718 167.833 58.6072 167.131 58.1478C164.726 56.4996 163.051 53.8247 162.186 50.3392C161.727 48.4208 161.727 48.3668 162.267 47.232C163.348 44.9894 163.186 44.395 161.025 42.1794C160.025 41.1256 158.863 40.1529 158.431 40.0178C157.701 39.7206 156.647 39.6125 156.647 39.8287Z" fill="black"/>
<path d="M62.3358 39.8287C62.3358 39.8827 61.9035 40.3691 61.3901 40.8824C59.9851 42.2874 60.0932 44.1788 61.4982 42.8549C63.0113 41.4498 65.8753 41.0446 67.3073 42.0443C67.8477 42.4225 67.8477 42.4225 67.1452 42.4225C66.7399 42.4225 66.1185 42.5576 65.7943 42.7198C65.2539 42.9359 65.1728 43.1521 65.2539 43.9356L65.3619 44.8543L67.0371 44.8273C68.9285 44.7732 70.1714 45.2866 70.8739 46.3674C71.3603 47.0699 71.1981 47.6103 70.6577 47.0699C70.1714 46.5835 68.3611 46.6646 68.172 47.178C67.9018 47.8534 67.9828 48.0966 68.4422 48.0966C68.6583 48.0966 69.4959 48.7181 70.3065 49.4746C71.7385 50.8256 72.5491 52.2576 72.0357 52.5548C71.9006 52.6629 71.7926 52.6089 71.7926 52.4467C71.7926 52.2846 71.4683 51.9604 71.0901 51.7172C70.4416 51.2849 70.3605 51.2849 69.4149 51.7983C68.6313 52.2306 68.0909 52.3387 66.875 52.2306C65.389 52.0955 65.3079 52.1225 65.0377 52.798C64.9026 53.2033 64.3622 53.7707 63.8218 54.0679C63.1464 54.4732 62.7951 54.9325 62.606 55.662C62.3358 56.7158 61.0118 58.0938 60.2823 58.0938C60.0661 58.0938 59.904 58.2559 59.904 58.445C59.904 58.9314 61.1739 60.7687 62.4168 62.0656L63.5246 63.2005L62.4709 63.6598C61.8494 63.903 61.0388 64.0381 60.5255 63.957C59.3907 63.7679 59.3366 64.3353 60.3093 65.7673C60.6876 66.3077 60.9848 66.8751 60.9848 67.0102C60.9848 67.1453 60.2553 67.3344 59.3636 67.4425C57.8506 67.6046 57.7425 67.6587 57.7425 68.3341C57.7425 68.7124 57.9856 69.4419 58.2829 69.9013L58.8232 70.7929H57.5804C56.1483 70.7929 55.4999 70.5227 54.2029 69.2528L53.2302 68.3341L52.906 69.8472C52.4737 71.7926 52.7979 72.36 55.0946 73.4678C56.0402 73.9272 56.7428 74.3054 56.6617 74.3054C56.5806 74.3325 55.4999 74.4946 54.2299 74.6837L51.9333 75.0079L54.2299 75.7915C55.9862 76.3589 57.067 76.548 58.8232 76.5751L61.1199 76.6021L61.201 75.4403C61.255 74.6297 61.1199 74.0082 60.7416 73.3868C59.9581 72.1169 60.0391 71.4144 61.1469 69.7121C62.1466 68.172 62.7681 67.5776 63.3895 67.5506C63.6597 67.5506 63.6597 67.6857 63.3085 68.2261C62.7411 69.0637 62.7681 69.7121 63.3355 70.1174C63.7138 70.3876 63.7948 70.8199 63.7408 72.0898C63.7138 72.9815 63.7948 73.7921 63.9299 73.8731C64.2812 74.0893 64.4703 72.7653 64.3082 71.3333C64.1461 69.8472 64.9296 68.6314 66.0644 68.6314C66.4697 68.6314 67.0371 68.4422 67.3073 68.2261C67.6046 68.0099 68.3341 67.8208 68.9285 67.8208H70.0363L69.1447 68.5233C68.3341 69.1717 68.253 69.3339 68.4151 70.2255C68.5232 70.928 68.4151 71.4414 68.0098 72.0628C67.7126 72.5492 67.3614 72.9545 67.2263 72.9545C66.9291 72.9545 66.0374 75.116 66.2536 75.3322C66.5238 75.6024 67.6856 74.2784 67.8477 73.4949C68.0369 72.4951 68.9015 71.6035 69.685 71.6035C70.0363 71.6035 70.8199 71.4144 71.4413 71.1982C72.0898 70.982 72.9544 70.874 73.4137 70.955C74.3594 71.1712 74.7647 71.6035 73.9811 71.6035C73.1435 71.6035 71.7926 72.9004 71.7926 73.738C71.7926 74.7377 71.0901 75.6564 70.2795 75.6564C69.9012 75.6564 69.1717 75.8455 68.6313 76.0617C67.9018 76.3859 67.7126 76.548 67.9558 76.7912C68.172 77.0074 68.5773 76.9804 69.4959 76.6291C70.6307 76.1698 70.7658 76.1698 71.3873 76.5751C71.7655 76.8182 72.0628 77.1965 72.0628 77.4127C72.0628 77.6288 72.2519 77.818 72.468 77.818C73.0084 77.818 75.0349 79.6553 75.0349 80.1416C75.0349 80.628 74.8998 80.628 74.0622 80.0876C73.2786 79.5472 71.4143 79.7634 70.6577 80.4388C70.2795 80.7631 69.7931 80.8441 68.4151 80.7361C66.0915 80.5469 64.9837 80.8171 63.7948 81.8709C63.0383 82.5193 62.66 82.6814 62.1196 82.5464C61.4441 82.3842 61.4441 82.3842 61.6333 83.6812C61.7143 84.3837 62.0386 85.4104 62.3358 85.9778C62.7681 86.8424 62.7951 87.0586 62.4979 87.1667C61.9305 87.3828 59.877 86.7614 58.7422 86.0319L57.7425 85.3834L57.4723 86.0589C57.3102 86.4642 57.2021 86.9505 57.2021 87.1667C57.2021 87.8422 56.6077 87.572 55.3648 86.302C54.2299 85.1672 54.0949 85.1132 53.7706 85.5455C53.4464 86.0048 52.0684 87.0046 51.7982 87.0046C51.6901 87.0046 51.474 86.5993 51.3119 86.0859C50.7174 84.4377 50.3392 84.3837 48.9071 85.6536C46.9887 87.3558 46.7726 87.4098 46.2052 86.5452C45.8539 86.0319 45.7188 85.2753 45.7188 83.9784C45.7188 81.9519 45.3135 81.6277 44.9893 83.411C44.557 85.9238 43.2601 87.4909 40.4501 88.8959C38.7748 89.7335 36.5322 91.3006 36.7484 91.4898C36.8024 91.5438 37.2888 91.4628 37.8562 91.3006C38.4236 91.1385 39.0721 91.0845 39.2882 91.1655C39.6665 91.3277 39.6665 91.4087 39.2342 91.868C38.7748 92.3814 38.7748 92.3814 39.5314 92.1653C39.9637 92.0302 40.8013 91.7059 41.3957 91.4357C42.6116 90.9224 45.6108 90.7873 48.0695 91.1655C49.5556 91.3817 49.6367 91.3547 50.3932 90.6252C50.8255 90.1928 51.2308 89.6525 51.3389 89.4363C51.474 89.085 51.528 89.085 51.7712 89.4363C52.1765 90.0037 52.1224 91.0575 51.6631 91.9491C51.2848 92.6786 51.3119 92.6786 52.2846 93.1109C52.8249 93.3271 53.6625 93.8675 54.1219 94.3268C54.5812 94.7591 55.3107 95.2185 55.743 95.3535L56.5266 95.5697L55.662 96.002C55.1756 96.2452 54.311 96.4613 53.6896 96.4613H52.6088L53.1492 97.5151C53.4464 98.1095 53.9327 98.758 54.257 99.0012C55.1756 99.6226 54.6352 100.055 53.0411 99.9198L51.6631 99.8118L51.6901 101.973C51.6901 103.189 51.7982 104.351 51.9063 104.594C52.1495 105.108 54.5542 106.594 56.0943 107.134C56.7428 107.35 58.1748 107.539 59.2556 107.539C60.9848 107.539 61.282 107.458 61.5252 106.999C61.6873 106.675 61.7413 106.215 61.6603 105.918C61.3901 105.054 62.1737 103.621 63.1734 103.216C63.6867 103.027 64.4163 102.568 64.7945 102.216C65.6862 101.406 67.2803 101.001 68.253 101.352L68.9285 101.622L67.8747 102.108C66.848 102.568 66.1185 103.54 66.1185 104.432C66.1185 104.891 66.5508 104.972 66.794 104.594C67.0101 104.243 71.1981 104.243 71.9006 104.621C72.7653 105.054 73.6839 105.972 73.6839 106.377C73.6839 106.648 73.5488 106.675 73.1706 106.459C72.441 106.08 70.9009 106.107 70.3876 106.54C69.7121 107.053 69.55 107.945 70.1174 107.999C73.2786 108.269 74.9268 108.89 75.8185 110.241C76.2237 110.863 76.2237 110.89 75.7104 110.647C75.4132 110.511 74.6026 110.376 73.9001 110.376C72.8733 110.376 72.5221 110.511 71.9547 111.133C71.5764 111.538 71.1441 111.862 70.955 111.862C70.7928 111.862 70.955 112.106 71.3603 112.43C72.387 113.24 73.1435 114.889 73.1435 116.294C73.1435 117.807 72.7382 118.104 72.333 116.861C72.1708 116.348 71.9817 115.915 71.9547 115.915C71.9006 115.915 71.4953 116.05 71.009 116.213C69.9012 116.618 68.8745 116.186 68.1449 115.024C67.6856 114.321 67.4154 114.186 66.794 114.24C66.3346 114.267 65.0377 114.348 63.9029 114.375C62.4709 114.429 61.6603 114.591 61.3361 114.889C59.823 116.213 57.6074 116.591 56.6887 115.672C56.3915 115.375 56.0132 114.645 55.8511 114.024C55.662 113.294 55.3377 112.835 54.9595 112.7C54.1759 112.403 53.9057 112.592 54.2299 113.213C54.6352 113.997 54.5542 116.131 54.0678 117.158C53.8247 117.672 53.3113 118.347 52.906 118.644L52.2035 119.212L52.1224 118.455C51.9873 116.888 51.7712 116.456 51.0146 116.05C50.2311 115.645 50.2041 115.672 49.9068 116.564C49.3935 118.158 47.9344 119.077 46.5294 118.725C46.0161 118.59 45.881 118.428 46.0161 118.104C46.3673 117.266 46.4484 115.969 46.1511 115.429C45.8539 114.889 45.7999 114.889 44.8542 115.294C43.6383 115.78 41.4228 115.645 40.8013 115.051C40.4501 114.672 40.4771 114.591 41.3147 114.321C42.2874 113.997 43.3952 112.997 43.9356 111.943C44.503 110.809 44.2868 109.215 43.2871 107.431C42.2063 105.486 42.1253 104.594 42.9088 103.297C43.9626 101.595 43.4762 99.6226 41.828 98.785C40.315 97.9744 36.3971 97.7042 36.3971 98.4067C36.3971 98.5418 36.0999 98.9201 35.7757 99.2714C35.1813 99.8388 35.1272 100.136 35.1542 102.352C35.1542 103.703 35.0732 104.891 34.9651 104.999C34.857 105.108 34.4788 104.864 34.1275 104.486C33.1278 103.405 32.8846 103.594 33.3169 105.026C33.7222 106.323 33.5871 108.485 33.1278 108.782C32.9927 108.836 32.5334 108.512 32.1011 108.026C31.2094 107.026 30.8311 107.107 31.2635 108.188C31.7228 109.458 31.5336 112.403 30.9662 112.403C30.8582 112.403 30.4259 112.106 30.0206 111.727C29.6153 111.349 29.183 111.052 29.0749 111.052C28.9398 111.052 28.8317 111.619 28.8317 112.349C28.8317 113.213 28.5885 114.051 28.1022 114.97C27.2376 116.591 27.1565 118.617 27.832 120.644C28.3454 122.157 30.2367 124.643 31.5066 125.426L32.3172 125.94L32.4793 125.183C32.7495 123.994 32.9927 123.643 33.9924 123.157C34.8841 122.697 35.0192 122.697 36.5322 123.184C38.5857 123.778 39.2882 124.156 39.6395 124.832C39.9097 125.318 39.8286 125.345 38.5857 125.183C37.3969 125.048 37.1267 125.102 36.3701 125.75L35.5055 126.48L36.8565 126.291C38.3425 126.102 38.2074 126.021 39.9367 128.128C40.7202 129.101 41.2606 130.398 41.2606 131.37C41.2606 132.073 40.8553 131.965 40.5041 131.181C40.0448 130.182 38.8289 129.668 37.6941 130.019C36.9105 130.263 36.5593 130.209 35.4515 129.695C34.2086 129.128 32.1281 128.344 31.8849 128.344C31.8309 128.344 31.8579 128.452 31.9389 128.614C32.02 128.75 32.7765 129.074 33.5871 129.317C35.0732 129.749 35.6946 130.425 35.3974 131.262C35.3164 131.424 35.4515 132.073 35.6946 132.667C36.235 133.991 36.235 135.099 35.7487 135.775C35.4244 136.234 35.3704 136.207 35.2083 135.315C34.9921 134.18 34.5058 133.694 32.8576 132.992C31.993 132.613 31.3175 132.073 30.7771 131.262C30.3178 130.614 29.7233 129.884 29.4532 129.668C29.183 129.452 29.3181 129.695 29.7233 130.182C30.588 131.262 30.615 131.641 29.8855 133.883C29.3181 135.639 28.1832 136.99 27.2916 136.99C26.9133 136.99 26.9133 136.909 27.3456 136.45C27.6699 136.099 27.832 135.504 27.805 134.694C27.805 133.667 27.6429 133.343 26.8323 132.586C26.2919 132.073 25.8596 131.397 25.8596 131.073C25.8596 130.155 25.3462 129.425 24.7248 129.425C24.4005 129.425 23.9142 129.236 23.644 128.993C23.2117 128.56 23.0496 128.56 21.5905 128.993C20.7259 129.236 19.5641 129.425 18.9966 129.425H17.9969L18.6994 128.479C19.1047 127.966 19.537 127.128 19.6451 126.588L19.8613 125.642H18.6454C17.2944 125.642 16.0785 125.102 15.4841 124.237C14.8357 123.346 14.9437 123.211 16.2136 123.211C17.5916 123.211 18.4833 122.643 18.9966 121.427C19.5641 120.103 19.483 119.968 18.5103 120.265C17.3755 120.59 16.5109 120.563 15.268 120.238C14.2682 119.941 12.6201 118.779 12.6201 118.347C12.6201 118.239 13.1334 118.05 13.7549 117.969C14.4033 117.861 15.6462 117.401 16.5379 116.888C18.132 115.996 18.159 115.996 18.2941 114.618C18.4022 113.43 18.5373 113.159 19.3749 112.619C20.7799 111.673 21.0501 110.944 20.834 108.89C20.5368 106.242 20.6448 104.864 21.2393 103.865C21.8337 102.865 21.8607 102.865 19.7532 102.541C18.7535 102.379 16.9702 101.595 14.8627 100.352C14.0521 99.8928 13.917 99.8658 13.2415 100.244C12.2418 100.811 11.8905 101.946 12.485 102.838C12.8903 103.486 13.0794 103.54 14.2682 103.432C15.8624 103.27 15.9975 103.649 14.8086 104.864C14.1602 105.513 13.7819 105.648 12.7552 105.648C11.6744 105.648 11.3502 105.513 10.7017 104.81C9.59389 103.621 9.21562 102.162 9.62091 100.73C9.97216 99.6226 11.0259 98.2987 11.8095 98.0285C12.0797 97.9474 11.8905 97.6232 11.107 96.9477C9.78303 95.7318 8.81033 93.8134 8.64821 92.1653C8.45908 90.0848 8.32398 89.7876 7.5134 89.4633C6.83791 89.1661 6.56772 89.2201 5.62204 89.6795C4.24405 90.382 3.16327 90.409 1.8123 89.7065C0.677487 89.1391 -0.646463 87.2477 0.353255 87.68C0.650468 87.7881 1.46105 87.9502 2.21759 88.0043C3.37943 88.1123 3.73068 88.0313 4.64934 87.3828C5.78416 86.5993 7.59446 86.3561 8.67523 86.8424C9.10754 87.0586 9.13456 87.0316 8.89139 86.5452C8.72927 86.248 8.2159 85.8427 7.78359 85.6536C7.05407 85.3564 6.81089 85.4104 5.59502 86.0319C3.24433 87.2477 1.35297 86.8154 0.299216 84.789C-0.214153 83.7892 0.00200234 83.492 0.758546 84.1945C1.67721 85.0321 3.83876 84.897 5.24377 83.9243C6.45964 83.1138 8.37802 82.8706 10.0262 83.3029C10.7287 83.492 10.7827 83.465 10.4855 83.1138C9.97216 82.5193 8.37802 82.06 7.32426 82.2221C6.81089 82.3032 6.02733 82.6814 5.568 83.0597C4.19001 84.2216 1.54211 83.7892 0.54239 82.2221C0.0290217 81.4656 0.218158 81.1684 0.947682 81.5737C2.05548 82.1681 3.8928 81.7358 4.78444 80.655C5.91925 79.304 8.86437 78.7636 10.4855 79.6012C11.5933 80.1686 11.7825 79.8985 10.7557 79.1959C9.29668 78.1422 7.05407 78.1152 5.97329 79.1419C3.97385 80.9792 1.27191 80.5199 0.272196 78.1422C-0.214153 76.9804 -0.0250171 76.7912 0.893643 77.5207C2.16355 78.5205 3.27135 78.2773 4.83848 76.7372C6.2705 75.3052 7.29724 74.9269 8.99946 75.1971C9.83707 75.3322 9.94514 75.3052 9.75601 74.8999C9.64793 74.6567 9.51283 73.5759 9.45879 72.5492C9.35072 70.874 9.43177 70.4687 10.1073 69.1447L10.8908 67.6316L9.81005 66.4428C8.4861 64.9567 7.56744 62.9573 7.18916 60.8228C6.75685 58.4991 7.40532 55.6891 8.86437 53.5275C9.51283 52.5548 9.91812 51.6362 9.91812 51.1228C9.91812 49.988 8.94543 48.9342 7.70253 48.7181C5.51396 48.3668 4.40617 51.3389 6.13541 52.9601C6.56772 53.3654 6.94599 53.7977 6.94599 53.8788C6.94599 53.9598 6.2705 54.0409 5.45992 54.0409C4.21703 54.0409 3.86578 53.9328 3.02818 53.2033C1.8123 52.1225 1.35297 50.6364 1.75826 49.2044C2.24461 47.6103 3.94684 45.854 5.86521 45.0164C7.32426 44.3679 7.81061 44.2599 9.48581 44.3679C11.5933 44.476 13.7008 45.3406 15.1599 46.6916C16.9972 48.4208 17.7538 51.8793 16.7811 54.176C16.5649 54.7164 16.4298 55.2297 16.4838 55.3108C16.727 55.527 18.8075 54.0679 19.5641 53.1222C19.9693 52.5818 20.5908 51.393 20.915 50.4743L21.4824 48.7721L22.0769 50.0961C22.5902 51.2038 22.6713 51.7713 22.5632 53.6086C22.3741 56.986 21.1042 58.9584 17.9429 60.7417C17.1323 61.201 16.3758 61.6874 16.2947 61.8225C16.2136 61.9576 16.8081 62.0116 17.6187 61.9305C18.4833 61.8495 19.456 61.9576 19.9153 62.1467C21.6445 62.8762 23.1306 65.4971 22.7253 67.1183L22.5632 67.8208L21.3203 67.0913C19.6181 66.0915 17.9429 66.0915 16.2407 67.1723C13.4306 68.9016 12.593 72.6302 14.4574 75.2241C17.1593 79.0068 17.3214 83.411 14.8357 86.9775C12.7281 90.0037 12.512 90.7873 13.3226 92.6246L13.7819 93.6243L13.9981 92.5706C14.5114 90.409 15.9975 89.1661 18.105 89.1661C19.0507 89.1661 19.429 89.3282 20.0234 89.9497C20.942 90.9224 21.0501 92.4084 20.2395 93.4622C19.456 94.543 18.9156 94.5159 19.0507 93.4082C19.1317 92.6786 19.0237 92.3814 18.5643 92.0572C16.8351 90.8683 15.0788 94.1917 16.2677 96.4343C16.7 97.326 18.132 98.0825 19.3209 98.0825C20.0234 98.0825 20.2666 97.8393 21.1852 96.3803C21.7796 95.4616 22.9145 93.8945 23.725 92.9488C26.1027 90.1118 26.8053 89.1391 28.1022 86.8695C29.6693 84.1945 30.8852 80.8441 31.1284 78.7096L31.3175 77.0884L29.8314 77.2235C29.0208 77.2776 28.1562 77.2235 27.913 77.0884C27.5078 76.8723 27.5888 76.7372 28.5075 76.1157C29.9935 75.143 30.8582 73.3327 30.615 71.6846C30.5339 70.982 30.3988 70.3876 30.3718 70.3336C30.3178 70.2795 29.8855 70.4417 29.3991 70.6848C28.2103 71.2793 26.6972 71.4414 25.7515 71.0901L24.9679 70.7659L25.5624 70.1444C26.427 69.2258 26.6702 67.9018 26.2378 66.4698C25.7515 64.8486 25.7785 62.9032 26.2649 61.6874C26.8323 60.3364 26.7782 60.3094 25.6975 61.3631C24.6707 62.3358 23.8872 63.6598 23.5899 64.9837C23.2117 66.5238 22.8064 64.9567 22.9415 62.4169C23.0225 60.4175 23.1847 59.769 23.9412 58.2289C24.4546 57.2292 25.4002 55.8242 26.1027 55.1217L27.3456 53.8247L26.5891 53.1492C26.0217 52.6359 25.8596 52.2306 25.8596 51.366V50.2582H26.9944H28.1292L27.2916 49.3665C26.0217 48.0426 25.5894 46.9618 25.5894 45.1785C25.5894 43.5844 25.5894 43.5844 26.481 43.4223C26.9674 43.3412 27.913 43.3952 28.5615 43.5033C29.237 43.6384 29.8044 43.6925 29.8314 43.6925C29.8584 43.6654 29.7233 43.125 29.5612 42.5036C29.3991 41.8822 29.3451 41.2877 29.4261 41.2067C29.5342 41.0986 30.0206 41.5039 30.561 42.0713L31.5066 43.098L31.5336 41.3958C31.5336 40.4771 31.6417 39.7206 31.8038 39.7206C31.9389 39.7206 32.074 39.9097 32.074 40.1529C32.074 40.3691 32.4523 40.9365 32.8846 41.3958C33.6952 42.2064 33.7492 42.2064 35.6676 42.0443C37.8832 41.8281 40.0718 42.2874 41.8821 43.3412C43.0709 44.0167 44.7461 44.3679 47.2049 44.449C48.0425 44.476 48.9882 44.6381 49.3124 44.8273C49.9068 45.1515 49.9339 45.3136 49.8798 47.7724C49.8528 49.2044 49.9339 50.7175 50.0149 51.0958C50.2581 51.9334 49.5826 53.7707 49.0422 53.7707C48.8261 53.7707 48.664 53.3924 48.6369 52.798C48.5829 51.6362 48.1776 51.0687 47.5021 51.2579C46.7456 51.447 44.611 50.4203 44.0977 49.6097C43.6924 49.0153 43.5573 48.9612 43.206 49.2314C42.3414 49.961 41.801 52.0955 42.2874 52.9061C42.6116 53.3924 45.1244 53.0141 44.9353 52.5278C44.6921 51.9064 45.5027 52.0955 46.0431 52.771C46.6375 53.5275 48.745 54.5813 49.6637 54.5813C50.6093 54.5813 50.9876 54.0949 50.9876 52.9061C50.9876 51.1768 52.6628 49.988 53.9598 50.7986C54.284 51.0147 54.257 51.1228 53.7976 51.6632C53.4734 52.0144 53.1492 52.825 53.0681 53.5005C52.852 55.1757 51.9603 55.9322 50.15 55.9322C48.8801 55.9322 48.8261 55.9593 49.0963 56.4726C49.5826 57.3913 49.3394 58.4721 48.6099 58.5801C48.0695 58.6612 47.9885 58.8233 48.0695 59.4988C48.1776 60.5526 47.7723 60.7147 46.8537 59.9852C46.3133 59.5528 46.1241 59.1746 46.1241 58.4721C46.1241 57.4723 45.908 57.3913 44.2598 57.7155C43.5573 57.8506 43.4222 58.0127 43.4222 58.6612C43.4222 59.5258 43.8275 59.823 45.4486 60.1202C46.0161 60.2013 46.8537 60.4715 47.286 60.7147C48.0425 61.0929 48.0965 61.0659 49.3124 60.0662C50.0149 59.4718 51.1497 58.6072 51.8522 58.1478C54.257 56.4996 55.9322 53.8247 56.7968 50.3392C57.2561 48.4208 57.2561 48.3668 56.7157 47.232C55.635 44.9894 55.7971 44.395 57.9586 42.1794C58.9583 41.1256 60.1202 40.1529 60.5525 40.0178C61.282 39.7206 62.3358 39.6125 62.3358 39.8287Z" fill="black"/>
<path fill-rule="evenodd" clip-rule="evenodd" d="M72.3259 45.299C96.2718 38.8968 122.859 38.8968 146.805 45.299C146.805 59.4159 146.805 73.5327 146.805 87.6496C146.805 108.824 109.565 129.427 109.565 129.427C109.565 129.427 72.3259 108.828 72.3259 87.6496C72.3259 73.5327 72.3259 59.4159 72.3259 45.299Z" fill="#232323"/>
<path d="M89.065 47.7545C88.6889 48.8222 88.5436 51.2011 88.7658 52.6997C88.9368 53.8423 89.4497 55.5376 89.937 56.5959C90.1336 57.0268 90.7063 58.1413 91.2107 59.0685C92.2622 60.9979 92.4417 61.3632 92.3733 61.4288C92.2023 61.6161 90.0395 60.4547 89.0394 59.6492C88.3469 59.0873 86.6372 57.2796 85.8764 56.3056C85.3721 55.65 85.2866 55.7436 85.3379 56.9144C85.3892 57.954 85.62 58.6752 86.2868 59.9115C87.2698 61.7191 88.4068 63.1521 90.0908 64.7256C90.6636 65.2594 91.1252 65.7277 91.1252 65.7746C91.1252 65.9057 90.7833 65.8776 89.8686 65.6809C88.4923 65.3812 87.21 64.8286 85.714 63.8733C84.9275 63.3675 84.8421 63.4612 85.2267 64.4259C85.5943 65.3625 86.1585 66.2054 87.039 67.1326C88.6034 68.781 90.2789 69.7738 92.9631 70.6636C93.6727 70.8977 94.3651 71.1319 94.5019 71.1974C94.7327 71.2911 94.7412 71.3098 94.6045 71.4035C94.2112 71.6376 92.7922 71.8531 90.9628 71.9467C89.9028 72.0029 89.0223 72.0685 88.9966 72.0966C88.8855 72.2277 90.3986 73.5108 91.1338 73.9136C91.6638 74.2133 92.6981 74.5879 93.476 74.7752C93.7923 74.8408 94.6472 74.8876 95.7158 74.897H97.4426L96.998 75.1499C96.5621 75.384 95.75 75.6931 94.1685 76.2082C93.7496 76.3487 93.1939 76.5641 92.9289 76.6953L92.4502 76.9294L93.0486 77.2385C93.9804 77.7161 94.7583 77.8941 96.0406 77.8941C96.6561 77.8941 97.528 77.8379 97.9897 77.763C98.494 77.688 98.8616 77.6693 98.9044 77.7161C98.9556 77.7723 98.3829 78.3249 97.4511 79.1117C96.6048 79.8328 95.9124 80.451 95.9124 80.4791C95.9124 80.6009 96.6903 80.7507 97.3143 80.7507C98.4342 80.7507 99.819 80.2824 102.264 79.0742C102.589 78.915 102.888 78.7839 102.931 78.7839C103.05 78.7839 102.537 79.58 102.067 80.1326C101.854 80.3854 101.247 80.9849 100.725 81.4719C100.195 81.9496 99.7592 82.3898 99.7592 82.4366C99.7592 82.5771 100.674 82.652 101.204 82.549C101.913 82.4085 102.657 82.0713 104.273 81.1534C105.034 80.7226 105.658 80.3854 105.658 80.4042C105.658 80.4323 105.29 81.1347 104.846 81.9776C104.401 82.8112 104.051 83.5137 104.068 83.5418C104.119 83.598 105.162 83.214 105.743 82.9236C106 82.7925 106.453 82.5209 106.752 82.3148C107.504 81.7997 107.564 81.9027 107.137 83.0641C106.949 83.5699 106.803 84.0007 106.82 84.0194C106.906 84.1225 107.769 84.0101 108.094 83.8508C108.299 83.7572 108.761 83.3732 109.12 82.9985C109.607 82.5115 109.804 82.3617 109.855 82.4553C109.889 82.5209 109.795 82.9301 109.855 83.2672L110.706 81.1534L110.129 83.804L109.616 84.5533C106.966 88.4214 105.307 92.2989 104.965 95.3897C104.863 96.3356 104.846 96.3637 104.119 96.8039C103.238 97.3284 102.196 97.2816 101.247 96.6635C100.606 96.2514 99.3147 94.8465 98.759 93.9567C98.5197 93.5727 97.87 92.327 97.3229 91.1937C95.8611 88.1966 92.6126 82.3429 91.433 80.5821C90.7405 79.5612 89.1249 77.866 88.27 77.2947C86.4235 76.0396 84.5685 75.5713 82.8759 75.9272C79.8326 76.5548 77.8665 79.0461 78.217 81.8091C78.4136 83.3076 79.0718 84.4222 80.2601 85.2745C81.5423 86.2017 83.5341 87.4193 83.6196 87.3256C83.6709 87.2694 83.6538 87.0446 83.5769 86.6887C83.4999 86.3796 83.4572 86.1268 83.4657 86.108C83.4828 86.0987 83.7478 86.2111 84.0556 86.3609C84.8848 86.7636 86.1072 87.2132 86.3893 87.2132C86.9108 87.2132 86.9022 87.1102 86.2355 86.0331C84.8677 83.7946 83.5512 82.8112 81.9099 82.8112C81.1149 82.8112 80.6704 82.652 80.2259 82.2305C79.2855 81.322 79.4565 79.7392 80.6276 78.5497C81.6364 77.5195 83.0127 77.0793 84.5343 77.2853C86.4321 77.5476 87.4408 78.072 88.8 79.4769C89.407 80.1138 90.4413 81.4344 90.4413 81.5843C90.4413 81.7154 90.0139 81.8746 89.6891 81.8746C89.5181 81.8653 89.142 81.8091 88.8599 81.7341C88.27 81.5749 87.8768 81.5562 87.8768 81.6779C87.8768 81.8653 88.4581 82.5958 88.8171 82.858L89.2018 83.139L89.1761 83.8134C89.1334 84.7312 89.3129 85.3026 89.8002 85.799C90.125 86.1268 90.4413 86.2953 90.4413 86.1455C90.4413 86.1174 90.3387 85.799 90.2191 85.443C89.9541 84.6657 89.9883 84.2348 90.3216 83.9445C91.0996 83.2701 92.0314 83.9445 93.117 85.9769C94.083 87.7752 94.6557 88.9646 96.015 91.9898C96.7074 93.5071 97.4682 95.09 97.7161 95.4927C98.6223 97.0006 100.101 98.3962 101.238 98.827C102.324 99.2485 103.563 99.2297 104.563 98.7895C104.863 98.6584 105.119 98.5835 105.153 98.6209C105.179 98.6584 105.273 98.8738 105.35 99.108C105.435 99.3421 105.615 99.7355 105.76 99.979L106.025 100.429L105.854 100.681C105.649 100.981 104.598 101.665 103.315 102.32C101.965 103.014 101.041 103.576 100.717 103.913C100.067 104.596 99.9216 105.505 100.358 106.254C100.597 106.676 100.7 106.741 102.178 107.537C104.324 108.68 104.333 108.689 105.008 111.096C105.401 112.473 105.598 112.848 106.128 113.213C107.06 113.859 107.256 114.225 107.025 114.899L106.931 115.152L107.333 115.096C107.855 115.039 108.12 114.805 108.453 114.131C108.598 113.831 108.829 113.485 108.957 113.382C109.393 112.998 110.009 113.007 110.402 113.4C110.573 113.578 110.616 113.7 110.616 114.103C110.616 114.496 110.641 114.571 110.753 114.524C110.83 114.496 110.915 114.468 110.958 114.468C111 114.468 111.146 114.356 111.291 114.225C111.659 113.887 111.744 113.485 111.59 112.764C111.522 112.436 111.479 112.042 111.513 111.883C111.573 111.499 112.249 110.815 112.565 110.815C112.599 110.815 112.719 110.984 112.83 111.19C112.932 111.396 113.052 111.565 113.095 111.565C113.138 111.565 113.274 111.415 113.403 111.237C113.762 110.712 113.719 110.366 113.138 109.195C112.727 108.38 112.565 108.137 112.257 107.912C111.659 107.481 111.283 107.453 109.505 107.725C108.735 107.846 108.658 107.837 108.068 107.64C107.684 107.519 107.205 107.256 106.795 106.947C106.136 106.46 105.367 105.552 105.427 105.355C105.461 105.243 105.752 105.196 108.957 104.821C111.248 104.559 111.949 104.278 112.958 103.238C113.898 102.255 114.428 101.159 114.847 99.3515C115.215 97.7874 115.283 97.7031 116.283 97.7031C117.72 97.7031 118.463 97.956 119.019 98.6303C119.506 99.2204 119.592 99.698 119.592 101.768C119.592 103.632 119.66 104.194 119.917 104.315C119.994 104.353 121.387 104.409 123.011 104.447C124.721 104.484 126.08 104.559 126.242 104.615C126.405 104.671 126.713 104.849 126.935 104.999C127.491 105.393 127.952 105.552 128.816 105.664C129.67 105.767 129.927 105.926 130.106 106.488C130.175 106.704 130.252 106.882 130.277 106.882C130.312 106.882 130.423 106.769 130.542 106.638C130.799 106.338 130.799 105.926 130.542 105.074C130.44 104.737 130.363 104.315 130.38 104.147C130.406 103.866 130.465 103.8 131.089 103.444C131.466 103.229 131.799 103.051 131.825 103.042C131.859 103.042 131.97 103.295 132.073 103.604C132.175 103.913 132.295 104.166 132.329 104.166C132.5 104.166 132.688 103.313 132.654 102.695C132.611 101.927 132.329 101.225 131.722 100.391C131.226 99.7261 131.166 99.5201 131.303 99.0611C131.363 98.8551 131.38 98.546 131.346 98.3025C131.312 98.0215 131.329 97.8342 131.397 97.7405C131.525 97.572 131.91 97.5719 132.303 97.7499C132.474 97.8248 132.628 97.8717 132.654 97.8436C132.748 97.7405 132.491 97.0662 132.252 96.8227C132.03 96.5885 131.893 96.5511 130.739 96.3825C130.038 96.2794 129.286 96.1764 129.072 96.1483C128.277 96.0266 127.397 96.8133 126.978 98.0028C126.696 98.827 126.337 99.3421 125.747 99.7729C125.131 100.232 124.541 100.419 123.746 100.419C123.156 100.419 123.071 100.391 122.866 100.176C122.652 99.9415 122.644 99.9041 122.703 99.1267C122.763 98.1245 122.857 97.7967 123.49 96.2514L123.994 95.0338V93.9567C123.994 92.9358 123.977 92.8515 123.738 92.3739C123.43 91.7557 122.96 91.3061 122.336 91.0345C121.874 90.8285 121.763 90.8191 119.617 90.8378L117.369 90.8472V90.6318C117.369 90.2478 117.703 89.2269 117.968 88.7867C118.344 88.1685 119.01 87.5129 119.558 87.2413C119.942 87.054 120.233 86.9884 121.113 86.9322C121.806 86.876 122.421 86.773 122.797 86.6513C123.131 86.5389 123.516 86.4358 123.652 86.4265C123.943 86.4171 123.951 86.4827 123.823 87.335L123.755 87.7939L124.054 87.6159C124.396 87.4193 124.841 86.8854 125.661 85.6678C126.584 84.3004 126.909 84.0663 128.123 83.9445C128.918 83.8602 129.311 83.7197 129.944 83.2795C130.867 82.6239 131.38 83.1109 131.389 84.6469C131.389 84.9654 131.44 85.3588 131.5 85.518C131.611 85.7896 131.62 85.799 131.739 85.6491C131.808 85.5554 131.953 85.2745 132.073 85.0216C132.722 83.6448 133.834 82.8768 135.381 82.7457C135.979 82.6988 136.167 82.6426 136.475 82.4178C136.962 82.0619 137.193 82.0994 137.415 82.549C137.621 82.9798 137.749 82.9985 137.928 82.6239C138.185 82.0807 138.091 81.7248 137.492 81.0223C136.962 80.3854 136.8 79.4863 137.159 79.1585C137.227 79.0929 137.381 78.8588 137.501 78.6246C137.723 78.2125 137.74 78.2125 138.125 78.2406C138.518 78.2687 138.527 78.2594 138.552 77.9784C138.569 77.7723 138.518 77.6037 138.373 77.4258C138.159 77.1448 138.048 77.1261 137.202 77.201C136.8 77.2385 136.159 76.9575 135.945 76.6484C135.671 76.2738 135.996 75.5994 136.432 75.5994C136.791 75.5994 136.826 75.4402 136.518 75.1311C136.159 74.7659 135.774 74.7659 135.022 75.1405C134.706 75.2904 134.252 75.4496 134.005 75.4777C133.509 75.5339 133.278 75.7212 132.945 76.3393C132.705 76.7889 132.662 77.2853 132.791 78.2687C132.85 78.7651 132.842 78.8588 132.688 79.0648L132.517 79.2896L131.508 79.1772C129.055 78.915 127.533 78.4467 127.303 77.8847C127.251 77.7723 127.234 77.379 127.26 76.9856C127.303 76.3862 127.277 76.1989 127.055 75.4964C126.884 74.9438 124.999 73.8888 125.05 73.7483C125.084 73.6359 127.166 73.9604 127.439 73.5577C128.875 71.4878 129.252 70.6261 129.978 67.7882C130.38 66.2148 130.448 66.0743 130.901 65.9525C131.098 65.8963 131.329 65.8308 131.406 65.8027C131.483 65.7746 131.654 65.6247 131.773 65.4655L131.996 65.1751L131.56 64.941C130.944 64.6225 130.842 64.3416 130.893 63.0491C130.936 61.9158 131.004 61.7378 131.739 60.7263C132.021 60.3517 132.244 60.0051 132.244 59.9489C132.244 59.9021 132.32 59.7804 132.415 59.6773C132.577 59.4994 132.611 59.4994 132.825 59.6211C132.962 59.6961 133.115 59.8272 133.184 59.9021C133.457 60.2767 133.663 59.3589 133.415 58.8531C133.355 58.7407 132.808 58.338 132.201 57.954C131.03 57.2422 130.79 56.9612 130.79 56.3805C130.79 55.9965 131.021 55.9122 131.457 56.1183C131.654 56.2119 131.833 56.2588 131.859 56.2119C131.927 56.0902 131.423 55.2285 131.175 55.0506C130.842 54.807 130.397 54.8632 129.987 55.1817C129.628 55.472 128.089 56.0621 127.952 55.9684C127.918 55.9403 127.884 55.7905 127.884 55.6406C127.884 55.4065 127.935 55.3315 128.183 55.2191C128.533 55.0599 128.542 55.0131 128.311 54.7321C128.029 54.4043 127.73 54.3762 127.294 54.6291C126.935 54.8351 126.858 54.9475 126.388 55.9684C125.747 57.3546 125.73 57.6168 126.2 59.2652C126.627 60.7919 126.721 61.6161 126.559 62.6089C126.268 64.4446 125.533 66.1679 124.387 67.732C123.917 68.3689 123.686 68.5656 123.387 68.575C123.054 68.575 120.498 67.1045 119.293 66.2148C117.061 64.5664 116.685 64.276 116.762 64.2292C116.993 64.07 118.215 63.611 118.404 63.611C118.523 63.611 118.78 63.7328 118.959 63.8733C119.139 64.0231 119.472 64.2573 119.694 64.3978C120.173 64.6975 120.25 64.5945 119.985 64.0044L119.805 63.5923L120.301 63.1146C120.626 62.7962 120.789 62.5527 120.789 62.4215C120.789 62.2904 120.566 61.9533 120.216 61.5505L119.652 60.8855L119.429 61.1103C119.104 61.4475 118.848 61.5693 118.446 61.5693C118.053 61.5786 117.455 61.3913 117.455 61.2695C117.455 61.1291 118.19 60.6982 118.745 60.5109C119.617 60.2112 120.353 60.3048 121.421 60.8481C122.079 61.1852 122.678 61.1478 123.43 60.7076C124.259 60.2206 124.234 59.9583 123.345 59.9583C122.558 59.9583 121.823 59.7429 120.942 59.2746C120.327 58.9281 120.207 58.825 120.036 58.4598C119.78 57.9165 119.831 57.5513 120.233 56.9144C120.592 56.3431 120.6 56.2026 120.31 55.65C120.113 55.2753 120.096 55.1723 120.147 54.5635C120.199 53.9641 120.19 53.8704 120.036 53.7019C119.763 53.4021 119.293 53.374 118.523 53.5895C117.651 53.833 116.061 53.9922 115.189 53.9173C114.813 53.8892 114.104 53.73 113.608 53.5707C112.548 53.2336 112.163 53.2523 111.813 53.655C111.599 53.8892 109.137 57.3639 107.427 59.8272C106.495 61.1852 106.179 61.9252 106.042 63.0959C106 63.5361 106.153 64.8192 106.299 65.2407C106.359 65.3999 106.35 65.3999 106.119 65.2688C105.718 65.044 103.794 64.3884 102.922 64.1824C101.819 63.9201 101.64 63.8639 101.024 63.5174C100.289 63.1146 99.6053 62.5246 98.1264 61.0354C94.8524 57.7292 92.3562 54.0671 90.2704 49.5246C89.7745 48.4476 89.3215 47.5484 89.2702 47.5203C89.2103 47.5016 89.1163 47.6046 89.065 47.7545Z" fill="#FFE4A5"/>
<path d="M108.342 49.4404C108.239 49.7027 108.222 49.9556 108.265 50.4988C108.299 50.8828 108.316 51.5103 108.308 51.8943C108.299 52.4188 108.342 52.6623 108.478 52.9433C108.573 53.1493 108.649 53.346 108.649 53.3835C108.649 53.4303 108.513 53.5146 108.342 53.5802C107.991 53.7207 107.76 54.0766 107.572 54.779C107.504 55.0506 107.427 55.2754 107.418 55.2754C107.401 55.2754 107.213 55.0038 106.991 54.676C106.769 54.3482 106.529 54.0485 106.452 54.0204C106.376 53.9829 106.145 54.0485 105.94 54.1609C105.649 54.3107 105.469 54.3482 105.179 54.3013C104.974 54.2733 104.632 54.2171 104.418 54.189C103.931 54.114 103.922 54.2077 104.341 55.06C104.615 55.6219 104.64 55.7531 104.597 56.1464C104.521 56.7271 104.743 56.9987 105.384 57.0924C105.623 57.1205 105.846 57.1954 105.871 57.2423C105.897 57.2891 105.769 57.4108 105.581 57.5139C105.179 57.748 104.914 58.0852 104.803 58.5441L104.726 58.8813L104.247 58.8532C103.914 58.8251 103.614 58.8719 103.281 59.0124C103.016 59.1154 102.52 59.2747 102.195 59.3496C101.597 59.4901 101.041 59.7804 101.041 59.9396C101.041 59.9865 101.511 60.2019 102.093 60.4267C102.666 60.6421 103.589 61.0167 104.144 61.2509C104.991 61.6068 105.179 61.6536 105.358 61.5693C105.469 61.5131 105.803 61.101 106.102 60.6515C107.376 58.7127 109.521 55.6126 110.231 54.676C110.658 54.114 111.094 53.5427 111.197 53.3929L111.402 53.1212L110.59 52.1846C109.778 51.2481 109.162 50.3302 108.803 49.5154C108.701 49.2812 108.581 49.0939 108.538 49.0939C108.504 49.0939 108.41 49.2531 108.342 49.4404Z" fill="#FFE4A5"/>
<path d="M109.071 1.35873C108.865 1.63865 108.691 1.91857 108.691 1.98613C108.691 2.0537 108.647 2.11161 108.582 2.11161C108.528 2.11161 108.473 2.15987 108.473 2.21779C108.473 2.30466 108.321 2.63284 107.93 3.41468C107.593 4.08069 107.462 4.67913 107.419 5.68297C107.375 6.63855 107.397 6.87986 107.593 7.41074C107.723 7.74857 107.81 8.03814 107.788 8.05744C107.734 8.11536 107.017 7.78718 106.973 7.681C106.951 7.64239 106.864 7.61344 106.788 7.61344C106.701 7.61344 106.571 7.55552 106.495 7.48796C106.332 7.35282 105.364 6.93777 104.647 6.69647C103.908 6.45516 102.581 6.52272 102.049 6.84125C100.788 7.59413 100.875 9.15781 102.255 10.2871C102.549 10.5284 102.744 10.6057 103.049 10.6057C103.625 10.6057 103.81 10.4126 103.723 9.87208C103.668 9.53425 103.701 9.39912 103.864 9.23503C104.158 8.95511 104.864 8.67519 105.321 8.68485C106.201 8.6945 107.277 9.33155 107.277 9.84312C107.277 10.0748 107.006 10.6636 106.832 10.7987C106.799 10.8277 106.495 11.1751 106.169 11.5709C105.158 12.7774 105.31 13.067 106.723 12.6616C107.104 12.5554 107.419 12.372 107.712 12.0825C107.951 11.8605 108.191 11.6674 108.245 11.6674C108.299 11.6674 108.375 11.7832 108.419 11.928C108.451 12.0728 108.549 12.2272 108.615 12.2659C108.767 12.3431 108.778 13.7523 108.636 14.0419C108.582 14.1384 108.484 14.4666 108.408 14.7562C108.332 15.0457 108.212 15.4994 108.147 15.7697C108.082 16.0303 107.984 16.3391 107.93 16.4453C107.875 16.5515 107.68 17.0245 107.506 17.5071C106.94 19.0032 106.777 19.3314 106.169 20.2387C105.94 20.5669 105.756 20.8854 105.756 20.9336C105.756 20.9916 105.712 21.0302 105.658 21.0302C105.603 21.0302 105.516 21.1267 105.473 21.2425C105.397 21.4549 104.832 22.034 103.962 22.7869C103.516 23.173 102.136 23.8197 101.331 24.032C100.766 24.1768 99.1679 24.09 98.6679 23.8969C98.4722 23.8197 98.1352 23.6942 97.9287 23.6266C97.5264 23.4915 96.5046 22.9703 96.4068 22.8448C96.3742 22.8062 96.135 22.6518 95.885 22.507C95.4175 22.2271 93.4717 20.5669 93.4717 20.451C93.4717 20.4124 93.3738 20.2869 93.2543 20.1615C93.0803 19.9877 93.0369 19.8043 93.0369 19.2445C93.0369 18.868 93.0695 18.5302 93.1021 18.4916C93.1456 18.4626 93.3304 18.5399 93.5152 18.6653C94.1022 19.0514 95.9719 19.0901 96.0589 18.704C96.0915 18.5592 94.5914 17.4588 94.3739 17.4588C94.3305 17.4588 94.0804 17.2947 93.8304 17.092C93.4282 16.7831 93.363 16.677 93.363 16.3584C93.363 15.7793 93.7 15.3932 94.5044 15.0554C95.1458 14.7755 96.0806 14.6403 96.0806 14.8334C96.0806 14.872 96.1894 14.9492 96.3307 14.9975C96.5046 15.065 96.6024 15.2195 96.6677 15.5573C96.7546 15.9144 96.8199 16.0303 97.0264 16.0689C97.7004 16.2233 98.2657 15.731 98.5483 14.7465C98.6896 14.2349 98.7005 14.0612 98.5809 13.6558C98.2983 12.652 97.7765 12.2466 96.7981 12.2466C96.2002 12.2466 94.8849 12.652 94.8849 12.8353C94.8849 12.8836 94.8196 12.9222 94.7327 12.9222C94.5479 12.9222 93.189 14.0998 92.6564 14.7272C92.4281 15.0071 92.2107 15.2098 92.1672 15.1905C92.1237 15.1712 92.0585 14.7369 92.0259 14.2349C91.9824 13.7427 91.8737 13.1346 91.765 12.9126C91.5476 12.401 90.8192 11.3392 90.3083 10.7891C89.58 9.98791 88.2211 8.86824 87.9929 8.86824C87.9276 8.86824 87.8081 9.04198 87.732 9.25433C87.5254 9.85278 87.2536 11.9184 87.308 12.4782C87.3841 13.2021 87.6232 14.2735 87.7102 14.2735C87.7537 14.2735 87.8298 14.3894 87.8733 14.5342C87.9059 14.6886 88.1885 15.094 88.482 15.4608C88.7755 15.8179 89.0147 16.1268 89.0147 16.1364C89.0147 16.1557 88.4603 16.0689 87.7972 15.953C85.9057 15.6152 84.8077 15.6538 83.7424 16.1171C83.1337 16.3777 82.9923 16.4936 82.7641 16.87C82.3184 17.6519 82.8401 18.8487 83.8946 19.4568C84.786 19.9781 85.4056 19.9684 85.8078 19.4279C85.96 19.2252 85.9492 19.1769 85.7426 18.8584C85.4817 18.4723 85.5143 18.1924 85.8839 17.8352C86.297 17.4395 86.6992 17.314 87.5906 17.314C89.1995 17.314 89.3843 17.8739 88.5146 19.9974C88.4277 20.1904 88.3625 20.5089 88.3625 20.6923C88.3625 21.1556 88.656 21.1363 89.4604 20.6151C89.9387 20.3062 90.1452 20.0939 90.3301 19.7271C90.4605 19.4568 90.5801 19.2348 90.5909 19.2155C90.6127 19.1962 90.841 19.3893 91.1236 19.6499C91.5911 20.0939 91.6237 20.1422 91.6237 20.673C91.6237 21.7927 91.2758 23.9741 90.8953 25.1807C90.6453 25.9722 90.1344 27.0339 89.9713 27.0918C89.917 27.1111 89.8844 27.1787 89.8844 27.2463C89.8844 27.42 88.7321 28.3563 88.3733 28.4818C87.7972 28.6845 87.645 28.7327 87.221 28.8292C85.1447 29.3119 83.775 29.1864 81.8944 28.3563C80.0029 27.5069 79.0137 26.8505 79.0137 26.4258C79.0137 26.2714 79.1006 26.2424 79.6442 26.2424C80.1877 26.2424 80.3834 26.1845 80.9813 25.866C81.6552 25.4992 81.8618 25.2579 81.6444 25.0648C81.59 25.0166 81.0356 24.9297 80.416 24.8814C79.0245 24.7753 78.231 24.6305 78.1223 24.476C78.0788 24.4085 78.0353 24.1286 78.0353 23.839C78.0353 23.1247 78.3506 22.6035 79.0137 22.1981C79.4811 21.9182 79.6116 21.8796 80.0029 21.9278C80.2529 21.9568 80.5029 22.0437 80.5464 22.1112C80.8182 22.5263 80.9378 22.5938 81.253 22.5359C81.7422 22.4298 81.9922 22.0533 81.9814 21.4356C81.9705 20.9433 81.6552 20.0649 81.4922 20.0649C81.4378 20.0649 81.4052 20.007 81.4052 19.9395C81.4052 19.814 81.1117 19.5534 80.6443 19.2734C80.1986 18.9935 79.4485 19.0514 78.7854 19.3989C78.1005 19.7561 77.9266 19.9298 77.4809 20.7406C76.9374 21.7348 76.8069 22.1209 76.633 23.2309C76.546 23.8004 76.296 24.1479 76.296 23.7039C76.296 23.5591 76.2525 23.4432 76.209 23.4432C76.1655 23.4432 76.0351 23.2985 75.9155 23.1247C75.4807 22.478 74.4806 21.6093 74.1545 21.6093C74.0784 21.6093 74.0131 21.5707 74.0131 21.5224C74.0131 21.4742 73.8936 21.4066 73.7414 21.3777C73.5892 21.339 73.4696 21.2811 73.4696 21.2329C73.4696 21.1846 73.3283 21.117 73.1435 21.0784C72.9696 21.0398 72.7956 20.9723 72.763 20.924C72.7195 20.8757 72.6217 20.8371 72.5239 20.8371C72.4369 20.8371 72.2086 20.7792 72.0238 20.702C71.3933 20.4607 69.3061 20.1035 69.1213 20.2097C69.067 20.2387 69.2192 20.4317 69.4583 20.6248C69.6975 20.8178 70.0453 21.0977 70.2193 21.2522C70.3932 21.397 70.5671 21.5128 70.5889 21.5128C70.6215 21.5128 70.7302 21.59 70.8389 21.6769C71.0346 21.841 71.4803 22.1788 72.3825 22.8255C72.5891 22.9799 72.8282 23.1633 72.9043 23.2212C72.9804 23.2888 73.0891 23.3467 73.1218 23.3467C73.1652 23.3467 73.437 23.5301 73.7088 23.7521C73.9914 23.9838 74.3828 24.2733 74.5784 24.4085C74.7741 24.5436 75.1111 24.8042 75.3394 24.9876C75.5568 25.171 76.1655 25.6729 76.6873 26.0976C78.1549 27.2945 78.568 27.7096 79.8616 29.2346C80.3834 29.8427 80.8291 30.364 80.8617 30.3929C80.8943 30.4219 81.2313 30.8948 81.6118 31.445C82.5575 32.8157 82.7097 33.1824 83.0576 34.9102L83.1989 35.6148L84.1229 35.5569C84.6338 35.528 85.8513 35.4411 86.8406 35.3639C91.5584 34.9971 93.6782 34.8716 100.755 34.582C105.005 34.4083 115.68 34.4276 119.453 34.6303C124.171 34.8813 130.53 35.306 133.454 35.5666C135.585 35.75 135.867 35.75 135.867 35.5183C135.867 35.4121 135.911 35.306 135.965 35.277C136.009 35.248 136.085 35.026 136.117 34.7847C136.161 34.5531 136.237 34.2732 136.291 34.1863C136.346 34.0898 136.694 33.472 137.063 32.806C137.933 31.2327 138.031 31.0879 139.205 29.669C139.259 29.6111 139.466 29.3505 139.661 29.0899C139.868 28.8196 140.074 28.5879 140.107 28.559C140.14 28.53 140.411 28.2308 140.705 27.8833C141.455 27.005 141.607 26.8602 142.281 26.281C143.586 25.171 144.118 24.756 144.944 24.1672C145.249 23.9548 145.542 23.7328 145.597 23.6749C145.662 23.617 145.923 23.4239 146.195 23.2405C146.455 23.0572 146.814 22.7965 146.988 22.6421C147.151 22.4973 147.325 22.3815 147.369 22.3815C147.412 22.3815 147.684 22.1884 147.977 21.9471C148.271 21.7058 148.543 21.5128 148.586 21.5128C148.619 21.5128 148.967 21.2522 149.347 20.9336C149.738 20.6248 150.086 20.3642 150.141 20.3545C150.184 20.3545 150.217 20.3062 150.217 20.2483C150.217 20.1035 148.869 20.2097 148.097 20.4124C146.945 20.7116 146.771 20.7696 146.086 21.0591C144.542 21.7058 143.575 22.478 143.075 23.4626C142.835 23.9355 142.716 23.8293 142.564 23.0089C142.466 22.4298 142.259 21.7444 142.107 21.4452C142.02 21.2811 141.955 21.0977 141.955 21.0302C141.955 20.7985 141.053 19.7175 140.672 19.4858C140.455 19.3507 140.248 19.2155 140.216 19.1866C140.107 19.0611 139.27 19.0128 138.9 19.0997C138.683 19.1576 138.335 19.3603 138.107 19.5534C137.531 20.0649 137.281 20.6344 137.281 21.4066C137.291 22.1402 137.465 22.4104 138.009 22.5166C138.302 22.5745 138.368 22.5456 138.542 22.2946C138.868 21.8024 139.455 21.7251 140.107 22.0726C140.977 22.5552 141.553 23.7135 141.194 24.3023C141.031 24.5822 140.585 24.6884 139.042 24.8332C138.237 24.9007 137.531 25.0166 137.465 25.0745C137.281 25.2386 137.846 25.7019 138.607 26.0011C139.129 26.2135 139.368 26.2521 139.737 26.2038C140.183 26.1556 140.216 26.1652 140.216 26.3776C140.216 26.7154 139.933 27.1401 139.542 27.391C139.346 27.5262 139.107 27.6806 139.02 27.7578C138.433 28.2405 136.52 29.1285 135.65 29.3312C135.378 29.3891 135.009 29.4856 134.813 29.5339C134.269 29.6787 131.737 29.418 131.737 29.2153C131.737 29.1767 131.65 29.1381 131.541 29.1381C131.313 29.1381 130.247 28.5879 129.932 28.308C129.584 27.9991 129.062 27.3717 128.812 26.9857C128.606 26.6575 128.475 26.3486 128.03 25.1034C127.812 24.5147 127.54 22.7193 127.432 21.1556L127.356 20.1615L127.834 19.7078C128.377 19.1769 128.475 19.119 128.475 19.3314C128.475 19.9298 130.193 21.2811 130.552 20.9626C130.671 20.8564 130.573 20.2869 130.269 19.3893C129.997 18.5881 129.899 18.1055 129.954 17.8932C130.084 17.4202 130.976 17.1692 132.008 17.314C132.41 17.3623 132.617 17.4685 132.998 17.8063C133.53 18.2696 133.585 18.5013 133.258 18.9067C132.671 19.6402 133.987 20.1132 134.987 19.5244C135.639 19.148 135.726 19.0707 136.074 18.4916C137.291 16.4839 134.976 15.2388 131.291 15.9241C130.693 16.0303 130.16 16.1075 130.106 16.0882C130.041 16.0689 130.16 15.8951 130.356 15.7021C130.812 15.2388 131.313 14.3604 131.432 13.7909C131.747 12.2369 131.769 11.9473 131.573 10.8084C131.345 9.47634 131.226 8.99372 131.084 8.9165C130.932 8.83928 130.399 9.20607 129.53 9.97826C128.769 10.6636 128.247 11.2138 128.117 11.4744C128.073 11.5516 127.921 11.7929 127.769 12.0052C127.617 12.2176 127.443 12.4975 127.377 12.6326C127.312 12.7678 127.203 12.9608 127.138 13.067C127.073 13.1732 127.008 13.7041 126.975 14.2446C126.932 15.2002 126.856 15.4029 126.66 15.1036C126.432 14.7369 124.975 13.3566 124.562 13.1153C124.431 13.038 124.247 12.9126 124.171 12.845C123.855 12.5747 122.812 12.2466 122.268 12.2466C121.638 12.2466 121.268 12.3913 120.811 12.8257C120.485 13.1249 120.485 13.1442 120.485 14.1963C120.485 14.9685 120.529 15.287 120.627 15.316C120.692 15.3353 120.757 15.4125 120.757 15.4801C120.757 15.7214 121.29 16.1075 121.627 16.1075C122.149 16.1075 122.279 16.0206 122.279 15.6538C122.279 15.2002 122.801 14.7562 123.323 14.7562C123.877 14.7562 124.801 15.1036 125.181 15.4511C125.584 15.8372 125.888 16.5032 125.682 16.5611C125.605 16.5901 125.54 16.6577 125.54 16.7156C125.54 16.8314 124.779 17.4492 124.638 17.4588C124.551 17.4588 124.062 17.758 123.649 18.0573C123.518 18.1441 123.312 18.2986 123.17 18.3951C122.79 18.6653 122.953 18.868 123.605 18.9453C124.323 19.0321 125.084 18.926 125.464 18.6847C125.845 18.453 125.932 18.5302 126.008 19.1673C126.062 19.6016 126.04 19.6981 125.801 19.9202C125.66 20.0553 125.54 20.1904 125.54 20.2097C125.54 20.3352 123.279 22.4008 122.54 22.9413C122.312 23.1054 121.649 23.4529 121.083 23.7135C120.072 24.1575 120.029 24.1672 119.018 24.1672C118.018 24.1672 117.952 24.1575 117.094 23.7618C116.115 23.3081 115.876 23.1633 114.985 22.3815C114.017 21.5321 113.485 20.8275 112.398 18.9549C112.213 18.6364 112.061 18.3468 112.061 18.2986C112.061 18.2503 111.995 18.0766 111.908 17.9125C111.821 17.7387 111.647 17.2754 111.517 16.8797C111.397 16.4839 111.245 16.0882 111.202 16.011C111.115 15.8565 110.658 14.3508 110.408 13.3566C110.278 12.8836 110.278 12.7292 110.386 12.5361C110.463 12.401 110.593 12.15 110.669 11.9763C110.8 11.6867 111.082 11.5419 111.082 11.7736C111.082 11.928 111.637 12.3817 112.061 12.5747C112.604 12.816 113.452 12.8933 113.528 12.7099C113.615 12.5168 113.3 11.8894 112.974 11.6192C112.756 11.4358 112.093 10.5574 111.897 10.2003C111.724 9.86243 111.724 9.83347 111.908 9.55355C112.017 9.38946 112.148 9.25433 112.18 9.25433C112.224 9.25433 112.332 9.19642 112.419 9.1192C112.604 8.94546 113.506 8.67519 113.865 8.67519C114.235 8.67519 114.876 8.94546 115.191 9.22538C115.463 9.48599 115.496 9.7466 115.3 10.0265C115.191 10.1713 115.202 10.2389 115.365 10.3933C116.148 11.1751 117.692 10.0072 117.887 8.4918C117.942 8.01883 117.92 7.85475 117.724 7.49761C117.594 7.27561 117.3 6.97638 117.083 6.84125C116.724 6.6289 116.561 6.59994 115.691 6.59994C115.148 6.59994 114.583 6.6482 114.441 6.70612C112.919 7.34317 111.778 7.87405 111.539 8.0671C111.463 8.13466 111.31 8.19258 111.213 8.18292C111.093 8.18292 111.082 8.16362 111.169 8.12501C111.234 8.10571 111.3 8.01883 111.3 7.95127C111.3 7.87405 111.376 7.61344 111.474 7.36248C111.658 6.86056 111.702 5.10383 111.539 4.59226C111.191 3.54981 111.017 3.13476 110.604 2.40118C109.941 1.21395 109.68 0.85681 109.517 0.85681C109.484 0.85681 109.289 1.08847 109.071 1.35873Z" fill="black"/>
<path d="M103.581 35.5185C98.5372 35.6729 91.8408 36.0783 85.5902 36.6285C84.6988 36.7057 83.7856 36.7733 83.5791 36.7926C83.2856 36.8119 83.1986 36.8601 83.1443 37.0532C83.1008 37.2173 83.0573 37.2559 82.9921 37.169C82.8616 36.976 82.7094 37.0339 82.7094 37.2848C82.7094 37.5841 82.4703 37.7481 82.1333 37.6806C81.7746 37.5937 81.6441 37.7964 81.9376 37.9798C82.2203 38.1535 82.2311 38.3562 81.9702 38.5203C81.6006 38.7616 81.6224 38.8485 82.0681 38.8099C82.3507 38.7809 82.5029 38.8099 82.5355 38.8968C82.7203 39.447 82.7094 39.4373 82.9377 39.1863L83.1443 38.9643V39.3697C83.1443 39.7751 83.1443 39.7751 83.4921 39.7172C83.6769 39.6883 84.177 39.6303 84.6009 39.611C85.0249 39.5821 86.0141 39.4952 86.7859 39.418C100.157 38.1053 110.593 37.8447 121.518 38.5589C124.996 38.7809 129.616 39.1477 132.334 39.418C133.117 39.4952 134.117 39.5821 134.563 39.611C135.008 39.6496 135.487 39.6979 135.628 39.7269C135.845 39.7751 135.867 39.7365 135.867 39.4276C135.867 39.2346 135.921 39.0802 135.976 39.0802C136.041 39.0802 136.085 39.1188 136.085 39.1574C136.085 39.2056 136.15 39.3215 136.237 39.418C136.378 39.5917 136.389 39.5821 136.563 39.2829C136.693 39.0705 136.802 38.9836 136.922 39.0222C137.009 39.0512 137.204 39.1091 137.356 39.1381L137.639 39.2056L137.432 38.8968L137.226 38.5782L137.53 38.3466L137.835 38.1246L137.53 38.057C136.976 37.9508 136.954 37.9315 136.954 37.5841V37.2366L136.617 37.4489C136.182 37.7192 135.932 37.6034 135.889 37.1111C135.856 36.7733 135.845 36.7636 135.4 36.7636C135.15 36.7636 134.28 36.7057 133.476 36.6285C132.671 36.5513 131.127 36.4161 130.051 36.3389C119.083 35.5088 111.604 35.2771 103.581 35.5185Z" fill="black"/>
</svg>
